<svg width="30" height="33" viewBox="0 0 30 33" fill="none" xmlns="http://www.w3.org/2000/svg">
<path d="M10 14.85H6.66667V18.15H10V14.85ZM16.6667 14.85H13.3333V18.15H16.6667V14.85ZM23.3333 14.85H20V18.15H23.3333V14.85ZM26.6667 3.30007H25V8.30839e-05H22V3.30007L8 3.30008V0.000158615L5 8.30839e-05V3.30007H3.33333C1.48333 3.30007 0.0166667 4.78507 0.0166667 6.60007L0 29.7C0 31.515 1.48333 33 3.33333 33H26.6667C28.5 33 30 31.515 30 29.7V6.60007C30 4.78507 28.5 3.30007 26.6667 3.30007ZM28 29.535H2V9.73506H28V29.535Z" fill="#544700"/>
</svg>
