<svg width="33" height="33" viewBox="0 0 33 33" fill="none" xmlns="http://www.w3.org/2000/svg">
<path d="M33 6.32473L25.41 0L23.2815 2.50695L30.8715 8.83168L33 6.32473ZM9.702 2.50695L7.59 0L0 6.30834L2.1285 8.81529L9.702 2.50695ZM16.995 10.0606H15.015V19.5639L22.935 23.988L24.42 23.0049L16.995 18.5808V10.0606ZM16.5 3.50645C8.2995 3.50645 1.65 10.1097 1.65 18.2532C1.65 26.3967 8.283 33 16.5 33C24.7005 33 31.35 26.3967 31.35 18.2532C31.35 10.1097 24.7005 3.50645 16.5 3.50645ZM16.5 30.3782C10.1145 30.3782 4.62002 24.5943 4.62002 18.2532C4.62002 11.9121 10.1145 6.29186 16.5 6.29186C22.8855 6.29186 28.38 11.9121 28.38 18.2532C28.38 24.5943 22.8855 30.3782 16.5 30.3782Z" fill="#544700"/>
</svg>
