<svg width="21" height="31" viewBox="0 0 21 31" fill="none" xmlns="http://www.w3.org/2000/svg">
<path d="M10.9897 15.3048L12.8802 12.7245C15.1356 9.62726 17.3922 6.52833 19.65 3.42774C19.7951 3.25296 19.9009 3.02497 19.9551 2.7705C20.0092 2.51602 20.0095 2.24562 19.9557 1.99097C19.9114 1.75096 19.8177 1.53357 19.6858 1.36476C19.554 1.19594 19.3896 1.08282 19.2122 1.03892C19.0389 0.980595 18.8574 0.987942 18.687 1.06017C18.5165 1.1324 18.3635 1.2668 18.2443 1.44907C17.2794 2.77481 16.3176 4.10056 15.3587 5.4263C13.2143 8.37609 11.0681 11.3234 8.92001 14.2682C8.81602 14.4003 8.73275 14.5601 8.6753 14.738C8.61786 14.9158 8.58744 15.1079 8.58591 15.3024C8.58439 15.497 8.61179 15.6899 8.66644 15.8694C8.72109 16.0489 8.80183 16.2112 8.90373 16.3463C12.0082 20.6119 15.1133 24.8775 18.219 29.1431C18.6315 29.7098 19.1452 29.7993 19.5704 29.3916C19.6935 29.2741 19.7958 29.1201 19.8697 28.941C19.9437 28.7619 19.9874 28.5622 19.9977 28.3567C20.0079 28.1513 19.9844 27.9453 19.9289 27.7539C19.8735 27.5626 19.7874 27.3909 19.6771 27.2514C19.0132 26.3242 18.3384 25.4094 17.669 24.4872L12.1765 16.9454C11.7947 16.4134 11.4021 15.8765 10.9897 15.3048Z" fill="#CDDAED"/>
<path d="M3.40683 15.4691C3.72705 15.0365 4.04184 14.6139 4.35301 14.1864C5.87148 12.0983 7.38935 10.0095 8.90661 7.91976C9.95591 6.47801 11.0064 5.03958 12.0581 3.60446C12.4996 3.00041 12.5303 2.13785 12.1305 1.58104C11.7307 1.02423 11.0939 1.03168 10.6452 1.64816L1.37517 14.3828C0.875847 15.0713 0.874039 15.9016 1.37517 16.5901L10.6452 29.3248C11.0939 29.9412 11.7162 29.9686 12.1305 29.3919C12.5448 28.8152 12.4923 27.975 12.0581 27.3684L3.55518 15.6853C3.50995 15.6281 3.46834 15.561 3.40683 15.4691Z" fill="#CDDAED"/>
<path d="M10.9897 15.3048L12.8802 12.7245C15.1356 9.62726 17.3922 6.52833 19.65 3.42774C19.7951 3.25296 19.9009 3.02497 19.9551 2.7705C20.0092 2.51602 20.0095 2.24562 19.9557 1.99097C19.9114 1.75096 19.8177 1.53357 19.6858 1.36476C19.554 1.19594 19.3896 1.08282 19.2122 1.03892C19.0389 0.980595 18.8574 0.987942 18.687 1.06017C18.5165 1.1324 18.3635 1.2668 18.2443 1.44907C17.2794 2.77481 16.3176 4.10056 15.3587 5.4263C13.2143 8.37609 11.0681 11.3234 8.92001 14.2682C8.81602 14.4003 8.73275 14.5601 8.6753 14.738C8.61786 14.9158 8.58744 15.1079 8.58591 15.3024C8.58439 15.497 8.61179 15.6899 8.66644 15.8694C8.72109 16.0489 8.80183 16.2112 8.90373 16.3463C12.0082 20.6119 15.1133 24.8775 18.219 29.1431C18.6315 29.7098 19.1452 29.7993 19.5704 29.3916C19.6935 29.2741 19.7958 29.1201 19.8697 28.941C19.9437 28.7619 19.9874 28.5622 19.9977 28.3567C20.0079 28.1513 19.9844 27.9453 19.9289 27.7539C19.8735 27.5626 19.7874 27.3909 19.6771 27.2514C19.0132 26.3242 18.3384 25.4094 17.669 24.4872L12.1765 16.9454C11.7947 16.4134 11.4021 15.8765 10.9897 15.3048Z" stroke="#CDDAED" stroke-width="2"/>
<path d="M3.40683 15.4691C3.72705 15.0365 4.04184 14.6139 4.35301 14.1864C5.87148 12.0983 7.38935 10.0095 8.90661 7.91976C9.95591 6.47801 11.0064 5.03958 12.0581 3.60446C12.4996 3.00041 12.5303 2.13785 12.1305 1.58104C11.7307 1.02423 11.0939 1.03168 10.6452 1.64816L1.37517 14.3828C0.875847 15.0713 0.874039 15.9016 1.37517 16.5901L10.6452 29.3248C11.0939 29.9412 11.7162 29.9686 12.1305 29.3919C12.5448 28.8152 12.4923 27.975 12.0581 27.3684L3.55518 15.6853C3.50995 15.6281 3.46834 15.561 3.40683 15.4691Z" stroke="#CDDAED" stroke-width="2"/>
</svg>
