<svg width="37" height="53" viewBox="0 0 37 53" fill="none" xmlns="http://www.w3.org/2000/svg">
<path d="M17.7011 26.3394L14.6165 22.1295C10.9367 17.0761 7.25484 12.0199 3.57106 6.96106C3.33433 6.67589 3.16166 6.3039 3.07331 5.88871C2.98496 5.47351 2.98458 5.03232 3.07221 4.61684C3.14461 4.22526 3.29749 3.87057 3.51261 3.59513C3.72773 3.31969 3.996 3.13513 4.28538 3.06349C4.56804 2.96834 4.8642 2.98033 5.14229 3.09817C5.42039 3.21602 5.67001 3.43531 5.86457 3.73269C7.43883 5.89575 9.00818 8.0588 10.5726 10.2219C14.0714 15.0347 17.5732 19.8434 21.0779 24.6481C21.2475 24.8636 21.3834 25.1244 21.4771 25.4146C21.5709 25.7047 21.6205 26.0181 21.623 26.3355C21.6255 26.653 21.5808 26.9678 21.4916 27.2606C21.4024 27.5535 21.2707 27.8183 21.1044 28.0387C16.0392 34.9984 10.9731 41.958 5.90589 48.9176C5.23289 49.8423 4.3946 49.9884 3.70094 49.3232C3.5001 49.1315 3.33319 48.8802 3.21252 48.5879C3.09186 48.2957 3.02054 47.9699 3.00382 47.6346C2.9871 47.2994 3.02541 46.9633 3.11593 46.6512C3.20645 46.339 3.34686 46.0588 3.52678 45.8312C4.61007 44.3184 5.71108 42.8259 6.80322 41.3212L15.7647 29.0161C16.3875 28.1482 17.0281 27.2722 17.7011 26.3394Z" fill="#CDDAED"/>
<path d="M30.0731 26.6074C29.5506 25.9017 29.037 25.2122 28.5293 24.5146C26.0518 21.1078 23.5753 17.6997 21.0997 14.2901C19.3877 11.9378 17.6737 9.59089 15.9578 7.24938C15.2376 6.26383 15.1874 4.85649 15.8397 3.94801C16.4921 3.03953 17.5311 3.0517 18.2631 4.05752L33.3879 24.835C34.2026 25.9585 34.2055 27.3131 33.3879 28.4365L18.2631 49.2141C17.5311 50.2199 16.5157 50.2645 15.8397 49.3236C15.1638 48.3826 15.2494 47.0118 15.9578 46.0222L29.831 26.9603C29.9048 26.867 29.9727 26.7575 30.0731 26.6074Z" fill="#CDDAED"/>
<path d="M17.7011 26.3394L14.6165 22.1295C10.9367 17.0761 7.25484 12.0199 3.57106 6.96106C3.33433 6.67589 3.16166 6.3039 3.07331 5.88871C2.98496 5.47351 2.98458 5.03232 3.07221 4.61684C3.14461 4.22526 3.29749 3.87057 3.51261 3.59513C3.72773 3.31969 3.996 3.13513 4.28538 3.06349C4.56804 2.96834 4.8642 2.98033 5.14229 3.09817C5.42039 3.21602 5.67001 3.43531 5.86457 3.73269C7.43883 5.89575 9.00818 8.0588 10.5726 10.2219C14.0714 15.0347 17.5732 19.8434 21.0779 24.6481C21.2475 24.8636 21.3834 25.1244 21.4771 25.4146C21.5709 25.7047 21.6205 26.0181 21.623 26.3355C21.6255 26.653 21.5808 26.9678 21.4916 27.2606C21.4024 27.5535 21.2707 27.8183 21.1044 28.0387C16.0392 34.9984 10.9731 41.958 5.90589 48.9176C5.23289 49.8423 4.3946 49.9884 3.70094 49.3232C3.5001 49.1315 3.33319 48.8802 3.21252 48.5879C3.09186 48.2957 3.02054 47.9699 3.00382 47.6346C2.9871 47.2994 3.02541 46.9633 3.11593 46.6512C3.20645 46.339 3.34686 46.0588 3.52678 45.8312C4.61007 44.3184 5.71108 42.8259 6.80322 41.3212L15.7647 29.0161C16.3875 28.1482 17.0281 27.2722 17.7011 26.3394Z" stroke="#C1D2ED" stroke-width="5"/>
<path d="M30.0731 26.6074C29.5506 25.9017 29.037 25.2122 28.5293 24.5146C26.0518 21.1078 23.5753 17.6997 21.0997 14.2901C19.3877 11.9378 17.6737 9.59089 15.9578 7.24938C15.2376 6.26383 15.1874 4.85649 15.8397 3.94801C16.4921 3.03953 17.5311 3.0517 18.2631 4.05752L33.3879 24.835C34.2026 25.9585 34.2055 27.3131 33.3879 28.4365L18.2631 49.2141C17.5311 50.2199 16.5157 50.2645 15.8397 49.3236C15.1638 48.3826 15.2494 47.0118 15.9578 46.0222L29.831 26.9603C29.9048 26.867 29.9727 26.7575 30.0731 26.6074Z" stroke="#C1D2ED" stroke-width="5"/>
</svg>
