<svg width="15" height="17" viewBox="0 0 15 17" fill="none" xmlns="http://www.w3.org/2000/svg">
<path d="M13.3333 1.7H9.85C9.5 0.714 8.58333 0 7.5 0C6.41667 0 5.5 0.714 5.15 1.7H1.66667C0.75 1.7 0 2.465 0 3.4V15.3C0 16.235 0.75 17 1.66667 17H13.3333C14.25 17 15 16.235 15 15.3V3.4C15 2.465 14.25 1.7 13.3333 1.7ZM7.5 1.7C7.95833 1.7 8.33333 2.0825 8.33333 2.55C8.33333 3.0175 7.95833 3.4 7.5 3.4C7.04167 3.4 6.66667 3.0175 6.66667 2.55C6.66667 2.0825 7.04167 1.7 7.5 1.7ZM5.83333 13.6L2.5 10.2L3.675 9.0015L5.83333 11.1945L11.325 5.593L12.5 6.8L5.83333 13.6Z" fill="#FFD600"/>
</svg>
