<svg width="33" height="33" viewBox="0 0 33 33" fill="none" xmlns="http://www.w3.org/2000/svg">
<path d="M16.4835 0C7.3755 0 0 7.392 0 16.5C0 25.608 7.3755 33 16.4835 33C25.608 33 33 25.608 33 16.5C33 7.392 25.608 0 16.4835 0ZM16.5 30.3601C9.207 30.3601 2.64 23.793 2.64 16.5C2.64 9.207 9.207 2.64008 16.5 2.64008C23.793 2.64008 30.36 9.207 30.36 16.5C30.36 23.793 23.793 30.3601 16.5 30.3601ZM8.25 19.8C9.537 23.661 12.738 26.4 16.5 26.4C20.262 26.4 23.463 23.661 24.75 19.8H8.25Z" fill="#544700"/>
</svg>
