<svg width="276" height="276" viewBox="0 0 276 276" fill="none" xmlns="http://www.w3.org/2000/svg">
<g filter="url(#filter0_d)">
<path d="M12.6404 192.485L122.666 253.789C124.087 254.582 125.704 255 127.35 255C128.997 255 130.614 254.582 132.035 253.789L263.339 181.436C264.756 180.659 265.932 179.54 266.751 178.19C267.569 176.841 268 175.31 268 173.75C268 172.191 267.569 170.66 266.751 169.31C265.932 167.961 264.756 166.841 263.339 166.065L151.949 105.456C150.543 104.685 148.949 104.28 147.327 104.28C145.706 104.28 144.112 104.685 142.705 105.456L12.6819 177.114C11.2633 177.887 10.0832 179.003 9.26135 180.35C8.43948 181.698 8.00406 183.228 8.00003 184.788C7.996 186.347 8.42277 187.879 9.23716 189.231C10.0521 190.582 11.2259 191.705 12.6404 192.485Z" fill="#7AC11F"/>
<path d="M111.142 0.542447C96.7246 8.69985 61.0488 28.8498 50.3783 34.7716C49.4683 35.2763 48.715 36.0019 48.1938 36.8743C47.6725 37.7467 47.403 38.7356 47.411 39.7399V179.548C47.1928 182.399 50.5344 185.042 53.3243 183.522L113.318 150.923C115.733 149.601 117.274 147.743 117.274 145.09V3.87097C117.273 3.18719 117.083 2.51578 116.723 1.92495C116.362 1.33408 115.844 0.844785 115.221 0.506717C114.598 0.168648 113.893 -0.00610384 113.177 0.000162799C112.461 0.00642944 111.758 0.193549 111.142 0.542447Z" fill="#172D51"/>
<path d="M116.867 2.24267L97.8167 12.7151V16.61C97.8167 16.9382 97.7268 17.2607 97.5546 17.545C97.383 17.8293 97.1359 18.0654 96.8382 18.2296L82.2639 26.2876C82.0675 26.3955 81.8457 26.4525 81.6194 26.4526C81.393 26.4528 81.1707 26.3962 80.9743 26.2886C80.7785 26.1809 80.6155 26.0259 80.502 25.8391C80.388 25.6523 80.3281 25.4404 80.3275 25.2244V22.3728L52.8336 37.7137C52.5733 37.861 52.3579 38.0699 52.2082 38.3212C52.0584 38.5718 51.9801 38.856 51.9801 39.1446V178.883C51.9778 179.083 52.0313 179.28 52.1344 179.454C52.2375 179.628 52.3873 179.773 52.5681 179.874C52.749 179.975 52.954 180.028 53.1636 180.028C53.3733 180.029 53.5789 179.977 53.7603 179.877L117.263 144.743C117.364 145.822 117.158 146.906 116.667 147.882C116.176 148.858 115.418 149.689 114.473 150.288C111.183 152.275 53.3232 183.533 53.3232 183.533C53.3232 183.533 48.7531 185.52 47.41 180.294V39.7306C47.4065 38.8126 47.6334 37.9067 48.0717 37.0887C48.51 36.2713 49.147 35.5655 49.9297 35.0312C52.5842 33.193 111.183 0.503897 111.183 0.503897C111.675 0.254497 112.213 0.101569 112.767 0.0541842C113.322 0.00679968 113.88 0.0658935 114.41 0.227946C114.94 0.390054 115.43 0.651824 115.852 0.997863C116.275 1.3439 116.62 1.76717 116.867 2.24267Z" fill="#112E7C"/>
<path d="M180.868 172.751C180.983 173.309 180.968 173.886 180.824 174.438C180.68 174.991 180.411 175.507 180.035 175.95C178.765 177.252 173.935 181.335 173.477 182.219C173.019 183.104 172.374 185.518 173.477 186.352C174.58 187.187 176.725 187.286 179.348 186.352C182.982 184.763 186.387 182.733 189.477 180.312C190.643 179.1 189.477 166.65 189.477 166.65C189.477 166.65 182.7 165.07 180.421 166.65L180.868 172.751Z" fill="#F96156"/>
<path d="M172.956 183.918C172.828 184.329 172.809 184.765 172.902 185.185C172.994 185.605 173.195 185.996 173.487 186.323C174.591 187.157 176.735 187.257 179.359 186.323C182.993 184.733 186.397 182.702 189.488 180.281C189.89 179.397 190.061 178.432 189.988 177.47C185.594 181.474 176.308 188.151 172.956 183.918Z" fill="#391A3A"/>
<path d="M183.649 177.49C183.246 176.912 182.684 176.451 182.025 176.158C181.253 175.908 180.431 175.826 179.62 175.92C178.954 175.92 178.954 176.914 179.62 176.914C180.194 176.795 180.791 176.832 181.344 177.022C181.896 177.211 182.381 177.546 182.743 177.987C183.181 178.494 184.055 177.997 183.649 177.49Z" fill="#391A3A"/>
<path d="M182.139 179.21C181.604 178.606 180.91 178.15 180.129 177.888C179.347 177.626 178.506 177.568 177.694 177.72C177.038 177.849 177.319 178.803 177.975 178.714C178.61 178.61 179.263 178.671 179.864 178.889C180.467 179.108 180.997 179.475 181.4 179.955C181.889 180.383 182.628 179.677 182.139 179.21Z" fill="#391A3A"/>
<path d="M196.941 180.373C197.055 180.932 197.04 181.508 196.896 182.061C196.753 182.614 196.484 183.13 196.108 183.572C194.837 184.874 190.008 188.958 189.549 189.842C189.091 190.726 188.446 193.141 189.549 193.975C190.653 194.81 192.797 194.909 195.421 193.975C199.055 192.386 202.46 190.355 205.55 187.934C206.716 186.722 205.55 174.272 205.55 174.272C205.55 174.272 198.773 172.693 196.493 174.272L196.941 180.373Z" fill="#F96156"/>
<path d="M189.031 191.529C188.902 191.94 188.884 192.376 188.977 192.796C189.069 193.216 189.27 193.607 189.562 193.934C190.665 194.769 192.81 194.867 195.434 193.934C199.068 192.344 202.472 190.314 205.563 187.893C205.976 187.003 206.154 186.032 206.083 185.061C201.669 189.085 192.383 195.772 189.031 191.529Z" fill="#391A3A"/>
<path d="M199.723 185.114C199.32 184.536 198.758 184.075 198.099 183.782C197.326 183.532 196.504 183.45 195.693 183.544C195.028 183.544 195.028 184.538 195.693 184.538C196.267 184.418 196.864 184.455 197.417 184.645C197.97 184.835 198.455 185.169 198.817 185.611C199.223 186.117 200.129 185.62 199.723 185.114Z" fill="#391A3A"/>
<path d="M198.244 186.83C197.709 186.226 197.015 185.77 196.234 185.508C195.452 185.246 194.611 185.188 193.798 185.34C193.142 185.468 193.424 186.423 194.08 186.333C194.715 186.23 195.367 186.291 195.969 186.509C196.572 186.727 197.102 187.095 197.505 187.575C197.963 188.042 198.701 187.297 198.244 186.83Z" fill="#391A3A"/>
<path d="M182.233 95.5796C178.611 103.489 176.614 111.989 176.351 120.618C176.122 134.31 177.819 171.102 177.819 171.102C177.819 171.102 181.796 174.749 190.529 173.467V122.417C190.529 122.417 193.59 123.46 193.59 125.656C193.59 127.852 196.38 180.045 196.38 180.045C196.38 180.045 197.942 182.817 209.372 178.584C209.372 178.584 210.933 110.215 202.543 96.7917" fill="#5B434D"/>
<path d="M140.26 117.935V196.627L163.985 209.583L190.781 194.48V115.779" fill="#112E7C"/>
<path d="M140.26 117.936L167.795 102.973L190.781 115.78L163.985 130.893L140.26 117.936Z" fill="#112E7C"/>
<path d="M163.983 130.891V209.583L190.779 194.48V115.779L163.983 130.891Z" fill="#112E7C"/>
<path opacity="0.1" d="M140.26 117.935V196.627L163.985 209.583L190.781 194.48V115.779" fill="#2E90A0"/>
<path d="M140.26 117.936L167.795 102.973L190.781 115.78L163.985 130.893L140.26 117.936Z" fill="#112E7C"/>
<path opacity="0.47" d="M163.983 130.891V209.583L190.779 194.48V115.779L163.983 130.891Z" fill="#2E90A0"/>
<path d="M163.527 117.229L150.118 123.32V202.013L83.1287 167.426" stroke="#1B1464" stroke-miterlimit="10"/>
<path d="M176.279 126.729L196.267 115.532L164.505 98.4817L145.923 109.689L176.279 126.729Z" fill="#6C7F91"/>
<path d="M181.035 99.197C186.5 101.006 192.081 101.105 197.796 100.787C200.065 98.5094 201.97 95.9247 203.449 93.1162C208.331 83.4788 210.09 67.2828 210.09 67.2828C210.09 67.2828 202.803 61.9078 197.973 60.616C193.142 59.3242 182.472 61.6099 180.723 64.4018C178.974 67.1938 178.329 79.7529 180.723 97.6073C180.796 97.9256 180.983 98.8892 181.035 99.197Z" fill="#FFE70D"/>
<path d="M190.248 62.3051C188.541 62.653 188.219 58.1416 188.947 57.7244C189.676 57.3072 197.671 57.2577 198.899 57.7843C201.595 58.9266 198.899 62.752 198.899 62.752" fill="#FFE70D"/>
<path d="M200.523 43.4367C198.982 43.1789 199.035 40.7244 196.172 39.6118C193.309 38.4987 189.926 40.0983 188.676 40.963C187.427 41.8272 186.512 40.0686 185.137 41.4198C183.763 42.771 184.637 44.8379 183.836 45.5734L183.722 45.6525C183.375 46.2089 183.182 46.8399 183.162 47.4864C183.142 48.1334 183.295 48.7743 183.607 49.3488C184.235 50.1519 184.974 50.8703 185.804 51.4849L198.65 57.884C200.201 56.8407 203.167 46.9543 203.001 45.7718C202.942 45.1666 202.661 44.601 202.208 44.1738C201.754 43.7467 201.158 43.4856 200.523 43.4367Z" fill="#200904"/>
<path d="M186.427 47.1822C185.844 47.7781 187.77 59.6017 191.528 60.0195C195.286 60.4367 199.731 55.6872 200.127 54.2761C200.523 52.8656 200.293 45.3341 198.763 44.5788C197.233 43.8235 189.956 43.5552 186.427 47.1822Z" fill="#F9B16F"/>
<path d="M188.187 43.7729C188.187 43.7729 187.448 46.5252 191.945 47.042C196.442 47.5587 196.755 48.5223 197.286 50.0225C198.327 52.8545 201.45 56.1429 202.491 47.6477C202.543 47.2404 199.305 41.4179 195.807 40.9611C192.309 40.5038 188.187 43.7729 188.187 43.7729Z" fill="#200904"/>
<path d="M197.69 51.5345C197.69 51.5345 199.106 49.2092 200.199 50.3119C201.292 51.4152 200.501 54.0081 199.023 54.8228" fill="#F1A056"/>
<path d="M163.588 100.607C163.588 100.607 159.924 103.369 158.956 103.926C157.988 104.482 163.12 106.072 163.204 106.618C163.287 107.165 168.221 102.912 168.221 102.912L163.588 100.607Z" fill="#F9B16F"/>
<path d="M176.279 126.729L168.461 107.563L138.105 90.4526L145.923 109.689L176.279 126.729Z" fill="#8BAADC"/>
<path d="M180.724 64.3997C180.724 64.3997 178.746 67.102 177.83 74.2262C176.914 81.3503 174.28 87.5499 172.76 89.7955C171.241 92.041 161.153 101.043 161.569 101.937C161.986 102.832 164.692 104.421 166.452 105.017C171.37 102.078 175.77 98.4126 179.485 94.1574C184.69 87.8286 184.513 76.6108 184.513 76.6108" fill="#FFE70D"/>
<path d="M184.126 119.376C184.144 118.622 184.306 117.878 184.605 117.18C184.878 116.817 185.234 116.519 185.645 116.305C186.146 116.004 186.626 115.672 187.082 115.312L190.622 111.735L185.281 110.969C184.105 111.715 182.889 112.401 181.637 113.026C181.398 113.026 177.994 115.014 178.16 115.51C178.327 116.007 180.617 114.338 180.617 114.338C179.343 114.881 178.118 115.522 176.953 116.255C176.537 116.723 175.995 119.097 176.37 119.425C176.745 119.753 177.328 119.425 177.713 119.246C178.098 119.067 177.453 120.24 178.046 120.429C178.491 120.577 178.959 120.654 179.431 120.657C179.661 120.772 179.923 120.816 180.181 120.782C180.438 120.748 180.679 120.639 180.867 120.468C181.563 119.662 182.08 118.729 182.387 117.726C182.387 117.726 182.252 120.578 183.106 120.389C183.407 120.279 183.772 119.882 184.126 119.376Z" fill="#F9B16F"/>
<path d="M180.382 115.172C179.734 115.445 179.139 115.821 178.623 116.284C177.966 117.077 177.561 118.032 177.456 119.037C177.394 119.315 177.862 119.375 177.915 119.097C177.994 118.098 178.427 117.156 179.143 116.424C179.664 116.028 180.233 115.694 180.84 115.43C180.675 115.365 180.521 115.278 180.382 115.172Z" fill="#5B434D"/>
<path d="M181.638 115.678C181.116 116.036 180.635 116.446 180.202 116.9C179.494 117.765 179.421 119.335 179.161 120.368C179.088 120.646 179.556 120.706 179.619 120.428C179.942 119.146 180.046 117.695 181.066 116.751C181.441 116.403 181.837 116.066 182.243 115.757C182.04 115.742 181.838 115.715 181.638 115.678Z" fill="#5B434D"/>
<path d="M210.1 67.2828C210.1 67.2828 212.182 67.7105 211.912 74.9336C211.641 82.1573 209.767 96.4848 206.332 99.9622C202.896 103.44 187.136 115.86 187.136 115.86C187.136 115.86 182.253 113.873 182.639 112.114C183.023 110.356 199.711 94.6466 199.711 94.6466C199.711 94.6466 202.231 62.6928 210.1 67.2828Z" fill="#FFE70D"/>
<path d="M181.784 69.8062L180.618 98.9983C180.618 99.6343 181.659 99.6343 181.659 98.9983L182.825 69.8062C182.856 69.2104 181.816 69.2203 181.784 69.8062Z" fill="#C7B623"/>
<path d="M199.783 77.2373L198.18 86.6163C197.639 89.7958 197.514 93.5019 195.869 96.3835C194.224 99.265 191.705 101.491 189.56 103.866L182.471 111.814C182.034 112.301 182.773 113.007 183.21 112.52L190.633 104.213C192.715 101.888 195.213 99.6026 196.764 96.9101C198.315 94.2177 198.513 90.8491 199.023 87.8488L200.782 77.5253C200.876 76.8695 199.887 76.6012 199.783 77.2373Z" fill="#C7B623"/>
<path d="M59.6748 57.8533V61.8079L107.843 35.0702V31.8213L59.6748 57.8533Z" fill="#8CC63F"/>
<path d="M84.9714 55.5369L59.6748 69.2086V73.1631L84.9714 59.1138V55.5369Z" fill="#F7931E"/>
<path d="M88.519 53.6212V57.1487L93.9427 54.1379V50.6902L88.519 53.6212Z" fill="#00A99D"/>
<path d="M97.4844 48.771V52.1687L107.843 46.426V43.1667L97.4844 48.771Z" fill="#F15A24"/>
<path d="M82.0462 66.9146L59.6748 79.0064V82.961L82.0462 70.541V66.9146Z" fill="#F15A24"/>
<path d="M60.2979 89.9868V93.9414L108.466 67.2038V63.9446L60.2979 89.9868Z" fill="#8CC63F"/>
<path d="M75.8931 92.9163V96.6422L87.5317 90.1738V86.6167L75.8931 92.9163Z" fill="#00A99D"/>
<path d="M72.3426 94.8347L60.2979 101.343V105.298L72.3426 98.6106V94.8347Z" fill="#F15A24"/>
<path d="M91.0808 84.6995V88.2071L108.466 78.5494V75.3L91.0808 84.6995Z" fill="#F7931E"/>
<path d="M100.523 89.3894L60.2979 111.14V115.094L100.523 92.758V89.3894Z" fill="#F7931E"/>
<path d="M104.073 87.4719V90.7904L108.466 88.3465V85.0972L104.073 87.4719Z" fill="#00A99D"/>
<path d="M60.2979 123.033V126.978L108.466 100.24V96.9912L60.2979 123.033Z" fill="#00A99D"/>
<path d="M78.0889 124.773V128.469L108.466 111.598V108.349L78.0889 124.773Z" fill="#F7931E"/>
<path d="M74.5393 126.689L60.2979 134.379V138.334L74.5393 130.435V126.689Z" fill="#F15A24"/>
<path d="M90.092 128.08L60.2979 144.176V148.131L90.092 131.597V128.08Z" fill="#00A99D"/>
<path d="M93.6411 126.162V129.629L108.465 121.393V118.144L93.6411 126.162Z" fill="#8CC63F"/>
<path d="M122.915 219.135L130.588 227.967L129.577 228.901L121.905 220.078L122.915 219.135Z" fill="white"/>
<path d="M103.302 223.713C103.507 224.211 103.871 224.635 104.342 224.925C104.161 225.12 104.029 225.353 103.957 225.604C103.885 225.856 103.874 226.119 103.926 226.376L103.302 223.713Z" fill="#A68D0B"/>
<path d="M120.28 223.704L122.206 224.966L121.176 228.771L125.777 227.291L127.703 228.543L119.979 230.948L118.657 230.083L120.28 223.704Z" fill="white"/>
<path d="M151.671 224.547C151.686 224.772 151.654 224.998 151.578 225.211C151.501 225.424 151.38 225.621 151.223 225.789C151.064 225.964 150.878 226.115 150.671 226.236L131.933 237.464C131.231 237.852 130.417 238.012 129.612 237.921C129.032 237.871 128.469 237.708 127.957 237.444L104.627 225.094L104.335 224.924C103.864 224.635 103.5 224.211 103.295 223.712C103.143 223.311 103.147 222.871 103.305 222.472C103.463 222.073 103.766 221.741 104.159 221.537L121.856 210.607C122.561 210.208 123.384 210.04 124.199 210.13C124.739 210.177 125.265 210.322 125.75 210.557L150.12 222.56C150.538 222.732 150.902 223.006 151.175 223.355C151.447 223.704 151.618 224.115 151.671 224.547ZM129.57 228.899L130.611 227.965L122.949 219.142L121.908 220.076L129.58 228.899H129.57ZM119.982 230.946L127.707 228.542L125.781 227.279L121.179 228.78L122.22 224.974L120.294 223.712L118.639 230.081L119.961 230.946H119.982ZM132.454 224.09L134.088 217.721L132.755 216.856L125.042 219.261L126.967 220.513L131.579 219.023L130.538 222.838L132.464 224.1" fill="#FFD600"/>
<path d="M132.763 216.858L125.05 219.252L126.965 220.504L131.587 219.014L130.535 222.829L132.461 224.091L134.096 217.712L132.763 216.858Z" fill="white"/>
<path d="M151.23 225.8C151.387 225.631 151.508 225.435 151.585 225.222C151.662 225.009 151.693 224.783 151.678 224.558L152.313 227.111C152.121 226.568 151.738 226.105 151.23 225.8Z" fill="#A68D0B"/>
<path d="M151.232 225.8C151.725 226.112 152.092 226.575 152.273 227.112C152.295 227.18 152.312 227.25 152.325 227.321C152.385 227.69 152.322 228.068 152.147 228.403C151.972 228.737 151.692 229.012 151.347 229.189L132.608 240.416C131.908 240.807 131.094 240.971 130.287 240.883C129.706 240.831 129.143 240.665 128.632 240.397L105.303 228.046C104.954 227.884 104.647 227.652 104.403 227.365C104.158 227.079 103.982 226.745 103.886 226.387C103.835 226.131 103.846 225.866 103.918 225.615C103.99 225.363 104.121 225.131 104.303 224.936L104.594 225.105L128.007 237.445C128.519 237.71 129.082 237.872 129.662 237.922C130.468 238.014 131.282 237.853 131.984 237.465L150.722 226.237C150.913 226.116 151.085 225.968 151.232 225.8Z" fill="#A68D0B"/>
<path d="M192.051 50.9355L194.011 51.4654" stroke="black"/>
<path d="M189.388 50.8611L187.76 51.3817" stroke="black"/>
<path d="M189.43 56.0103L190.077 56.2675C190.553 56.4572 191.083 56.4885 191.58 56.3566L192.886 56.0103" stroke="black"/>
<path d="M189.469 52.0198L188.403 52.1526" stroke="black"/>
<path d="M193.173 52.2221L192.312 52.1609" stroke="black"/>
</g>
<defs>
<filter id="filter0_d" x="0" y="0" width="276" height="276" filterUnits="userSpaceOnUse" color-interpolation-filters="sRGB">
<feFlood flood-opacity="0" result="BackgroundImageFix"/>
<feColorMatrix in="SourceAlpha" type="matrix" values="0 0 0 0 0 0 0 0 0 0 0 0 0 0 0 0 0 0 127 0"/>
<feOffset dy="13"/>
<feGaussianBlur stdDeviation="4"/>
<feColorMatrix type="matrix" values="0 0 0 0 0 0 0 0 0 0 0 0 0 0 0 0 0 0 0.25 0"/>
<feBlend mode="normal" in2="BackgroundImageFix" result="effect1_dropShadow"/>
<feBlend mode="normal" in="SourceGraphic" in2="effect1_dropShadow" result="shape"/>
</filter>
</defs>
</svg>
