<svg width="320" height="265" viewBox="0 0 320 265" fill="none" xmlns="http://www.w3.org/2000/svg">
<path d="M316.336 191.214L193.732 261.996C190.671 263.764 187.198 264.694 183.663 264.694C180.127 264.694 176.654 263.764 173.593 261.996L4.06488 164.125C2.82858 163.408 1.80232 162.379 1.08892 161.141C0.375511 159.903 0 158.499 0 157.07C0 155.641 0.375511 154.237 1.08892 152.999C1.80232 151.76 2.82858 150.731 4.06488 150.015L129.936 76.9679C131.545 76.037 133.37 75.5469 135.229 75.5469C137.087 75.5469 138.913 76.037 140.521 76.9679L316.327 178.475C317.443 179.121 318.37 180.05 319.015 181.167C319.659 182.284 319.999 183.552 320 184.842C320.001 186.132 319.663 187.399 319.02 188.518C318.377 189.636 317.451 190.566 316.336 191.214Z" fill="#92ACF2"/>
<path d="M130.811 190.081C130.424 190.081 129.209 189.989 128.758 189.989C127.33 190.957 125.666 191.52 123.944 191.618C121.86 191.922 119.737 191.439 117.989 190.265L117.63 193.459C117.427 195.917 120.64 195.429 121.855 195.374C124.222 195.247 126.572 194.886 128.868 194.297C129.789 194.076 132.716 193.606 132.882 192.106C133.047 190.606 132.559 190.293 130.811 190.081Z" fill="#FF666D"/>
<path d="M125.251 181.273C125.251 181.273 123.41 189.925 124.257 189.888C125.104 189.851 130.811 190.081 130.811 190.081C130.292 191.144 129.514 192.058 128.549 192.74C127.584 193.422 126.462 193.85 125.288 193.984C121.045 194.601 118.016 190.302 118.016 190.302L119.701 179.505" fill="#E4A05B"/>
<path d="M117.271 177.268L116.01 184.153C116.01 184.153 117.989 186.188 124.653 185.948C131.317 185.709 124.653 173.78 124.653 173.78" fill="#2E2401"/>
<path d="M113.377 160.617C113.377 160.617 120.814 154.653 125.748 153.944C130.682 153.235 133.259 158.602 132.909 162.182C132.559 165.763 120.741 167.705 120.741 167.705" fill="#EDBAB9"/>
<path d="M137.732 195.235C137.346 195.235 136.131 195.143 135.68 195.143C134.252 196.111 132.588 196.674 130.866 196.772C128.782 197.076 126.659 196.593 124.911 195.419L124.542 198.576C124.34 201.034 127.552 200.546 128.767 200.491C131.135 200.364 133.484 200.003 135.781 199.414C136.701 199.193 139.628 198.723 139.794 197.223C139.96 195.723 139.49 195.437 137.732 195.235Z" fill="#FF666D"/>
<path d="M132.173 186.427C132.173 186.427 130.332 195.079 131.179 195.042C132.025 195.005 137.732 195.235 137.732 195.235C137.214 196.298 136.436 197.212 135.471 197.894C134.506 198.576 133.384 199.004 132.21 199.138C127.966 199.755 124.938 195.456 124.938 195.456L126.622 184.659" fill="#FCBF81"/>
<path d="M113.847 160.894C113.847 160.894 121.284 154.929 126.217 154.22C131.151 153.512 133.728 158.878 133.379 162.458C133.029 166.039 121.21 167.981 121.21 167.981" fill="#EDBAB9"/>
<path d="M117.814 162.882C118.734 161.961 131.4 156.098 135.845 158.786C140.291 161.473 140.015 163.471 139.454 166.747C138.892 170.024 134.594 187.678 134.594 187.678C131.359 188.927 127.807 189.095 124.469 188.157L125.711 175.041L108.895 165.836" fill="#6B460E"/>
<path d="M117.915 161.52L121.901 164.511L138.92 155.758L127.543 147.667L111.601 156.706L117.915 161.52Z" fill="#E9121C"/>
<path d="M75.8229 158.363L74.8289 162.965C76.1536 162.701 77.5004 162.562 78.8512 162.551C79.8821 162.689 81.1984 164.521 79.9097 165.763C78.6211 167.006 76.4304 166.886 74.2306 167.402C72.0307 167.917 71.6901 168.018 70.2819 167.622C68.8736 167.227 68.6619 165.312 68.6619 165.312L69.7664 157.286" fill="#E55600"/>
<path d="M68.5515 153.88L67.2905 160.765C67.2905 160.765 69.2695 162.799 75.9335 162.559C82.5976 162.32 75.9335 150.391 75.9335 150.391" fill="#2E2401"/>
<path d="M59.8992 173.448C65.1403 173.448 69.3891 171.87 69.3891 169.923C69.3891 167.976 65.1403 166.398 59.8992 166.398C54.6582 166.398 50.4094 167.976 50.4094 169.923C50.4094 171.87 54.6582 173.448 59.8992 173.448Z" fill="#FF666D"/>
<path d="M58.2979 154.156L58.666 168.349H61.501V154.156" fill="#FF666D"/>
<path d="M83.5825 162.136L82.5884 166.738C83.9131 166.474 85.2599 166.335 86.6107 166.324C87.6416 166.462 88.9579 168.294 87.6693 169.537C86.3806 170.779 84.19 170.66 81.9901 171.175C79.7902 171.69 79.4497 171.792 78.0414 171.396C76.6331 171 76.4214 169.086 76.4214 169.086L77.5259 161.059" fill="#E55600"/>
<path d="M146.375 61.5592L151.097 52.9991L153.822 48.5993L143.292 43.4816L136.536 57.3436L146.375 61.5592Z" fill="#C3F362"/>
<path d="M157.366 59.9847L154.365 56.6527C154.121 56.435 153.902 56.1912 153.712 55.9255C153.55 55.4778 153.491 55 153.537 54.5264C153.483 53.8385 153.35 53.1591 153.141 52.5014C153.083 52.3159 152.962 52.1567 152.798 52.0524C152.634 51.948 152.439 51.9053 152.246 51.9319C152.054 51.9584 151.877 52.0525 151.748 52.1973C151.618 52.3421 151.544 52.5282 151.539 52.7223C151.539 53.1458 151.539 53.5784 151.539 54.0018L150.812 53.3482C149.827 55.1339 148.815 56.9104 147.738 58.65C148.327 58.65 148.925 58.65 149.523 58.65C151.664 59.9229 153.564 61.5616 155.138 63.4916C155.228 63.59 155.341 63.6633 155.467 63.7044C155.594 63.7456 155.729 63.753 155.859 63.7261C155.989 63.6991 156.11 63.6387 156.209 63.5508C156.309 63.4628 156.384 63.3504 156.427 63.2246C156.513 63.2068 156.596 63.179 156.675 63.1418C156.858 63.0291 156.99 62.8508 157.044 62.6436C157.099 62.4364 157.073 62.2162 156.97 62.0281C156.934 61.9386 156.879 61.8579 156.809 61.7912C156.739 61.7246 156.656 61.6735 156.565 61.6415C156.399 61.4482 156.243 61.2549 156.086 61.0524L156.188 61.1628C156.915 61.9176 158.065 60.7671 157.366 59.9847Z" fill="#FCBF81"/>
<path d="M151.244 57.4258C150.916 56.965 150.704 56.4311 150.628 55.8702C150.657 55.3108 150.871 54.7769 151.235 54.3515C151.373 54.149 151.051 53.9649 150.913 54.1674C150.515 54.6485 150.286 55.2465 150.26 55.8702C150.337 56.4965 150.568 57.094 150.931 57.6098C150.959 57.6432 150.998 57.6655 151.041 57.6729C151.084 57.6803 151.128 57.6722 151.166 57.6502C151.203 57.6281 151.232 57.5934 151.246 57.5524C151.261 57.5113 151.26 57.4664 151.244 57.4258Z" fill="#A0722D"/>
<path d="M160.79 5.80745V71.0211C160.791 72.0496 161.065 73.0594 161.584 73.9472C162.103 74.8351 162.848 75.5691 163.744 76.0744L269.872 136.088C270.755 136.588 271.755 136.848 272.77 136.842C273.785 136.836 274.782 136.563 275.659 136.052C276.536 135.541 277.264 134.808 277.77 133.928C278.276 133.047 278.542 132.05 278.542 131.034V69.1618C278.539 68.1591 278.276 67.1743 277.779 66.3033C277.283 65.4323 276.569 64.7047 275.707 64.1914L169.571 0.818621C168.689 0.293294 167.684 0.0109434 166.658 0.000311753C165.632 -0.0103199 164.621 0.251147 163.729 0.758096C162.836 1.26504 162.094 1.99937 161.578 2.88633C161.062 3.77328 160.79 4.78119 160.79 5.80745Z" fill="#021E6A"/>
<path d="M204.235 55.4469L202.854 55.8059C203.171 55.5677 203.388 55.2198 203.462 54.8302C203.491 54.6982 203.482 54.5604 203.436 54.4332C203.39 54.3059 203.308 54.1946 203.201 54.1123C203.093 54.03 202.965 53.9802 202.83 53.9688C202.695 53.9574 202.56 53.9848 202.44 54.0479C201.213 54.6615 199.967 55.2751 198.703 55.8888L198.776 55.6126C198.98 55.0216 199.055 54.3941 198.997 53.7717C198.73 52.7224 197.782 53.3023 197.396 54.1307C196.871 55.2352 196.761 56.4226 195.767 57.297C195.185 57.6913 194.526 57.958 193.834 58.0794C193.134 58.2819 192.435 58.466 191.735 58.6501C191.593 58.6948 191.469 58.7835 191.381 58.9036C191.293 59.0236 191.245 59.1686 191.245 59.3174C191.245 59.4663 191.293 59.6113 191.381 59.7313C191.469 59.8513 191.593 59.9401 191.735 59.9847C191.635 60.0501 191.554 60.1406 191.5 60.2473C191.446 60.354 191.421 60.473 191.427 60.5924C191.434 60.7119 191.471 60.8274 191.537 60.9276C191.602 61.0277 191.693 61.1089 191.799 61.1629C191.487 61.6692 191.846 62.4884 192.517 62.2122C194.158 61.5467 195.86 61.0442 197.598 60.7119C199.31 60.6199 201.016 60.4757 202.716 60.2793C203.59 60.178 203.636 58.8158 202.716 58.8894H202.587L204.124 58.6317C204.888 58.5028 204.723 57.1682 203.94 57.2694H203.756L203.25 57.3431L203.977 57.1037C204.428 56.9473 204.842 56.846 205.072 56.395C205.125 56.2732 205.141 56.139 205.12 56.0081C205.099 55.8772 205.042 55.755 204.954 55.6556C204.866 55.5563 204.752 55.4839 204.625 55.4469C204.497 55.41 204.362 55.41 204.235 55.4469Z" fill="#FCBF81"/>
<path d="M198.712 56.6257C198.695 56.5941 198.668 56.5691 198.635 56.555C198.602 56.5409 198.566 56.5385 198.531 56.5481C198.497 56.5578 198.467 56.579 198.446 56.6082C198.425 56.6374 198.415 56.6728 198.417 56.7086C198.538 57.146 198.533 57.6087 198.403 58.0434C198.273 58.4781 198.022 58.8673 197.681 59.1661C197.534 59.295 197.755 59.5159 197.902 59.3871C198.278 59.0457 198.552 58.6074 198.695 58.1202C198.838 57.6331 198.844 57.116 198.712 56.6257Z" fill="#A0722D"/>
<path d="M202.946 55.5766C201.823 55.8711 200.712 56.2148 199.614 56.6075C199.43 56.6719 199.513 56.9757 199.697 56.902C200.795 56.5155 201.906 56.1718 203.029 55.8711C203.06 55.8544 203.085 55.8274 203.1 55.7945C203.114 55.7616 203.116 55.7249 203.106 55.6904C203.097 55.656 203.075 55.6259 203.046 55.6051C203.017 55.5844 202.982 55.5744 202.946 55.5766Z" fill="#A0722D"/>
<path d="M203.728 57.1589L200.185 57.7019C199.991 57.7019 200.074 58.0333 200.268 57.9965L203.811 57.4534C204.005 57.4258 203.922 57.122 203.728 57.1589Z" fill="#A0722D"/>
<path d="M203.093 58.7337C202.142 58.795 201.188 58.838 200.231 58.8625C200.028 58.8625 200.028 59.1755 200.231 59.1755C201.188 59.1755 202.142 59.1325 203.093 59.0466C203.287 59.0282 203.287 58.7245 203.093 58.7337Z" fill="#A0722D"/>
<path d="M294.521 179.496C294.046 179.729 293.554 179.926 293.049 180.085C290.909 179.358 288.589 179.358 286.449 180.085C286.333 180.119 286.231 180.19 286.158 180.287C286.086 180.384 286.047 180.502 286.047 180.623C286.047 180.745 286.086 180.863 286.158 180.96C286.231 181.057 286.333 181.128 286.449 181.162C288.586 181.823 290.868 181.851 293.021 181.245C293.27 181.337 293.509 181.438 293.748 181.558C294.319 181.834 294.825 181.116 294.494 180.72L295.092 180.453C295.736 180.168 295.166 179.174 294.521 179.496Z" fill="#007058"/>
<path d="M78.98 122.392C78.1608 125.153 76.9274 128.025 74.3777 129.525C71.6164 131.118 68.2107 130.685 65.2561 130.041C64.667 129.912 64.4185 130.814 65.0076 130.961C68.2199 131.661 71.8741 132.084 74.8563 130.354C77.6177 128.734 79.026 125.622 79.9188 122.668C79.9369 122.606 79.9428 122.542 79.9359 122.478C79.9291 122.414 79.9097 122.352 79.8789 122.295C79.8482 122.239 79.8066 122.189 79.7566 122.149C79.7066 122.109 79.6491 122.078 79.5875 122.06C79.5258 122.042 79.4612 122.036 79.3973 122.043C79.3334 122.05 79.2715 122.069 79.2151 122.1C79.1587 122.131 79.1089 122.173 79.0685 122.223C79.0282 122.273 78.9981 122.33 78.98 122.392Z" fill="#E55600"/>
<path d="M78.1424 133.685C75.3013 134.299 72.4357 134.781 69.5455 135.13C69.4813 135.136 69.4189 135.154 69.362 135.184C69.305 135.214 69.2547 135.255 69.2141 135.305C68.8827 134.305 68.6005 133.289 68.3673 132.259C68.2384 131.669 67.3364 131.918 67.4469 132.507C67.9789 134.851 68.7691 137.13 69.8032 139.3C70.0609 139.843 70.8617 139.374 70.6132 138.831C70.1806 137.91 69.8032 136.99 69.4626 136.069H69.5271C72.497 135.719 75.4455 135.229 78.3726 134.596C78.9801 134.449 78.7315 133.556 78.1424 133.685Z" fill="#008074"/>
<path d="M70.466 140.267C69.707 141.529 68.7318 142.647 67.585 143.571C67.1156 143.948 67.7783 144.611 68.2477 144.234C69.4534 143.257 70.4784 142.076 71.276 140.745C71.3395 140.638 71.3577 140.509 71.3266 140.389C71.2955 140.268 71.2177 140.164 71.1103 140.101C71.0029 140.037 70.8747 140.019 70.7538 140.05C70.633 140.081 70.5295 140.159 70.466 140.267Z" fill="#008074"/>
<path d="M159.372 114.898C159.372 114.898 159.28 119.427 158.746 120.136C158.212 120.844 153.463 123.366 153.223 124.517C152.984 125.668 153.803 127.278 156.068 126.698C158.332 126.119 163.781 122.547 163.781 122.547V112.745" fill="#007058"/>
<path d="M177.56 120.053L178.14 124.968C178.14 124.968 176.06 132.544 176.888 133.464C177.716 134.385 180.717 135.379 181.886 133.464C183.055 131.55 181.389 124.471 181.389 124.471L181.306 119.142" fill="#007058"/>
<path d="M166.634 68.0478C166.634 68.0478 160.743 91.9795 160.486 95.6613C160.228 99.343 158.461 117.163 158.461 117.163C158.461 117.163 164.057 119.648 167.831 118.387L170.776 95.9098L174.081 72.3555C174.081 72.3555 168.043 66.345 166.634 68.0478Z" fill="#FF666D"/>
<path d="M177.937 73.6904C182.098 91.3262 182.54 104.645 184.703 120.063C184.703 120.063 175.691 123.349 173.703 120.164C172.359 104.452 171.273 88.6937 170.767 72.9357L177.937 73.6904Z" fill="#FF666D"/>
<path d="M194.459 54.9871C190.676 56.423 186.175 57.7484 183.092 57.325C179.215 56.8026 175.406 55.8582 171.734 54.5085C171.237 54.3428 165.852 52.281 163.855 54.0574C161.857 55.8339 162.391 61.6143 162.391 61.6143L155.12 55.3185C152.423 56.2849 151.355 59.0739 151.097 61.8444L151.373 62.1298C151.895 62.7434 152.423 63.357 152.956 63.9707C155.34 66.6492 158.074 69.7419 161.581 70.9108C162.968 71.3139 164.451 71.2227 165.778 70.6531C166.818 70.2665 168.346 68.9963 169.46 69.4105C169.755 69.521 170.031 69.7327 170.381 69.6958C171.218 69.5946 172.341 68.2599 173.142 67.8549C175.323 66.7228 177.882 66.5479 180.285 66.4283C182.907 66.3367 185.52 66.0475 188.099 65.563C188.854 65.4066 196.899 63.3448 197.074 63.7221C195.731 60.9729 194.848 58.0221 194.459 54.9871Z" fill="#7FAE1A"/>
<path d="M166.128 49.6025C165.594 52.1245 166.045 55.613 168.742 56.0456C172.221 56.561 173.087 54.2047 172.902 51.2869C172.755 48.9766 171.549 45.3592 168.429 46.4085C167.662 46.702 167.036 47.2784 166.68 48.0193C166.428 48.5207 166.242 49.0529 166.128 49.6025Z" fill="#FCBF81"/>
<path d="M165.926 50.1636C165.226 49.8022 164.649 49.2428 164.266 48.5553C163.883 47.8677 163.711 47.0825 163.772 46.2977C163.919 44.7514 165.419 42.7724 167.159 43.5364C168.337 44.0334 168.015 44.0702 168.015 44.0702C168.291 43.7433 168.648 43.4947 169.05 43.3493C169.452 43.2039 169.886 43.1668 170.307 43.2418C171.954 43.3891 172.24 44.3924 172.24 44.3924C172.24 44.3924 174.081 45.0183 174.605 46.2333C175.167 47.5955 173.887 51.6547 173.28 52.7961C172.672 53.9374 172.313 51.6179 172.102 50.6883C172.029 50.3139 171.865 49.9634 171.624 49.6679C171.383 49.3724 171.073 49.1411 170.721 48.9946C169.709 48.7185 169.202 49.6205 168.402 49.9979C168.027 50.2077 167.611 50.3314 167.182 50.36C166.754 50.3887 166.325 50.3216 165.926 50.1636Z" fill="#7C7108"/>
<path d="M172.488 74.6849C174.351 74.703 176.201 74.3656 177.937 73.6908L178.306 62.1392L164.379 68.6652C164.379 68.6652 164.904 71.4265 165.493 74.013C167.766 74.6496 170.135 74.8771 172.488 74.6849Z" fill="#7FAE1A"/>
<path d="M64.658 137.229C64.658 137.229 72.0952 131.264 77.0288 130.555C81.9624 129.847 84.5396 135.213 84.1899 138.793C83.8401 142.374 72.0215 144.316 72.0215 144.316" fill="#2E2401"/>
<path d="M68.6159 139.217C69.5363 138.297 82.2017 132.433 86.6474 135.121C91.0932 137.809 90.8171 139.806 90.2556 143.083C89.6941 146.36 85.4233 164.005 85.4233 164.005C82.1885 165.254 78.6364 165.421 75.2983 164.483L76.5409 151.367L59.7244 142.162" fill="#6B460E"/>
<path d="M59.4113 118.12C60.0832 118.617 65.8545 119.308 67.0418 121.959C68.2292 124.609 70.0793 138.315 70.0793 138.315C70.0793 138.315 66.6184 143.469 60.6263 141.638C58.8498 141.095 49.6362 124.25 49.3876 122.502C48.7525 117.955 59.4113 118.12 59.4113 118.12Z" fill="#E55600"/>
<path d="M48.0532 147.713C47.7609 147.02 47.521 146.306 47.3352 145.578C45.927 140.055 44.9973 119.244 54.3398 120.09C64.5936 121.011 61.1327 146.7 71.5246 145.909C81.9164 145.117 86.1781 147.823 81.9256 151.855C73.4575 159.918 53.2629 160.084 48.0532 147.713Z" fill="#021E6A"/>
<path d="M61.6205 109.293C61.7033 109.79 62.5409 116.786 60.4975 118.36C58.4541 119.934 53.7783 116.215 53.6586 114.365C53.5389 112.515 51.9742 108.667 53.9531 107.701C55.9321 106.735 61.059 105.805 61.6205 109.293Z" fill="#FCBF81"/>
<path d="M61.6206 109.293C61.6206 109.293 63.3602 107.949 63.664 106.734C63.9677 105.519 62.4674 104.645 61.0039 104.645C59.5403 104.645 58.2977 105.022 57.0367 104.267C56.3605 103.883 55.5961 103.682 54.8185 103.682C54.0408 103.682 53.2764 103.883 52.6002 104.267C51.4128 105.077 51.2103 107.029 50.4095 108.032C49.6087 109.035 48.0808 109.146 48.1176 111.014C48.1544 112.883 50.8789 113.076 51.0906 114.328C51.3023 115.58 51.9559 117.411 53.6403 117.724C55.3247 118.037 57.635 118.074 57.8283 117.826C58.0216 117.577 56.7698 113.389 57.9296 113.113C59.0893 112.837 61.6942 112.229 61.6206 109.293Z" fill="#A6D647"/>
<path d="M85.4233 108.088C85.4171 107.27 85.1165 106.483 84.5765 105.869C84.5227 105.81 84.4568 105.763 84.3832 105.731C84.3188 104.967 84.1071 104.203 83.4628 103.936C83.3547 103.904 83.2395 103.904 83.1314 103.936C83.0549 103.922 82.9762 103.926 82.9012 103.947C82.8262 103.967 82.7569 104.005 82.6984 104.056C82.64 104.108 82.5939 104.172 82.5637 104.243C82.5335 104.315 82.5199 104.393 82.5239 104.47V105.299C82.4528 105.112 82.3195 104.956 82.1465 104.857C82.0385 104.796 81.9164 104.763 81.7922 104.763C81.6679 104.763 81.5458 104.796 81.4378 104.857C81.3149 104.875 81.2037 104.94 81.1267 105.037C81.0497 105.135 81.0129 105.258 81.0236 105.382L81.1617 108.888C80.9868 108.235 80.6094 106.955 79.6705 107.627C78.9342 108.152 79.468 109.597 79.5877 110.278C79.8062 111.664 80.1324 113.03 80.5634 114.365C80.5991 114.472 80.6666 114.565 80.7567 114.632C80.726 114.773 80.6892 114.914 80.6462 115.055C80.4069 115.976 80.1584 117.209 79.4496 117.817C78.9066 118.286 79.6982 119.078 80.2412 118.608L80.3148 118.535C80.1308 119.133 81.0604 119.547 81.3365 118.967L81.447 118.756C81.4979 118.808 81.557 118.851 81.6219 118.884C81.6219 119.004 81.5298 119.124 81.493 119.243C81.2721 119.934 82.3582 120.228 82.5699 119.538C82.6129 119.623 82.6787 119.695 82.7599 119.745C82.8412 119.795 82.9348 119.821 83.0302 119.821C83.1256 119.821 83.2191 119.795 83.3004 119.745C83.3816 119.695 83.4474 119.623 83.4904 119.538C83.6193 119.262 83.5824 120.191 83.6929 119.915C83.9782 120.035 83.3799 118.995 83.564 118.673C84.2636 117.347 86.0032 116.022 85.9572 111.733C86.0124 110.646 86.8224 108.548 85.4233 108.088Z" fill="#FCBF81"/>
<path d="M81.3734 105.529C81.3734 105.289 80.9868 105.289 80.996 105.529C81.0635 107.02 81.1648 108.508 81.2998 109.993C81.2998 110.232 81.6955 110.232 81.6771 109.993C81.5483 108.508 81.447 107.02 81.3734 105.529Z" fill="#A0722D"/>
<path d="M82.8461 104.415C82.8461 104.365 82.8262 104.317 82.7909 104.282C82.7555 104.246 82.7075 104.227 82.6574 104.227C82.6074 104.227 82.5594 104.246 82.524 104.282C82.4886 104.317 82.4688 104.365 82.4688 104.415L82.616 110.417C82.616 110.467 82.6359 110.515 82.6713 110.55C82.7067 110.585 82.7547 110.605 82.8047 110.605C82.8548 110.605 82.9028 110.585 82.9381 110.55C82.9735 110.515 82.9934 110.467 82.9934 110.417L82.8461 104.415Z" fill="#A0722D"/>
<path d="M84.1253 106.044L84.0149 110.647C84.0149 110.697 84.0348 110.745 84.0702 110.78C84.1055 110.815 84.1535 110.835 84.2036 110.835C84.2536 110.835 84.3016 110.815 84.337 110.78C84.3724 110.745 84.3923 110.697 84.3923 110.647L84.5027 106.044C84.5027 105.994 84.4828 105.946 84.4475 105.911C84.4121 105.876 84.3641 105.856 84.314 105.856C84.264 105.856 84.216 105.876 84.1806 105.911C84.1452 105.946 84.1253 105.994 84.1253 106.044Z" fill="#A0722D"/>
<path d="M85.285 108.217C85.2298 109.346 85.1316 110.472 84.9905 111.595C84.9905 111.834 85.331 111.834 85.3679 111.595C85.5151 110.472 85.6133 109.346 85.6624 108.217C85.6624 107.968 85.2942 107.977 85.285 108.217Z" fill="#A0722D"/>
<path d="M64.75 119.933C64.75 119.933 70.4292 122.004 71.9019 121.876C73.3746 121.747 79.5784 113.84 79.5784 113.84C79.5784 113.84 83.8769 115.027 85.276 118.857C85.276 118.857 77.2681 130.316 73.7704 131.006C70.2727 131.697 66.0018 129.976 66.0018 129.976" fill="#E55600"/>
<path d="M100.923 151.763C100.923 151.763 100.656 141.739 105.222 141.574C109.787 141.408 115.761 144.694 116.083 149.996C116.405 155.297 117.307 165.22 117.307 167.079C117.307 168.938 113.966 175.814 113.966 175.814" fill="#E55600"/>
<path d="M174.808 205.554C174.808 205.885 174.541 209.926 174.992 210.396C175.443 210.865 176.621 213.157 178.085 213.249C179.548 213.341 180.91 213.056 181.177 214.62C181.444 216.185 172.893 216.719 172.893 216.719C172.893 216.719 171.973 213.129 171.605 213.231C171.237 213.332 171.236 217.189 171.236 217.189L169.644 217.529L168.052 216.471L168.696 209.595L169.736 203.75" fill="#E55600"/>
<path d="M181.233 211.324C181.021 213.754 181.15 217.013 183.432 218.495C184.684 219.305 187.326 218.559 187.657 220.335C187.943 221.9 179.373 222.48 179.373 222.48C179.373 222.48 178.453 218.9 178.066 219.001C177.68 219.102 177.716 222.959 177.716 222.959L176.124 223.309L174.532 222.259L175.13 215.374L176.133 209.52" fill="#E55600"/>
<path d="M177.468 167.125L178.591 165.625C178.675 165.482 178.72 165.32 178.72 165.154C178.72 164.988 178.675 164.826 178.59 164.683C178.505 164.541 178.384 164.424 178.238 164.345C178.092 164.266 177.928 164.228 177.762 164.235C177.993 163.824 178.17 163.385 178.287 162.928C178.313 162.747 178.28 162.564 178.193 162.403C178.106 162.243 177.97 162.115 177.804 162.039C177.639 161.962 177.453 161.941 177.275 161.979C177.096 162.016 176.935 162.11 176.814 162.247L174.973 164.76L175.894 163.103C176.437 162.182 174.909 161.455 174.375 162.385L172.764 165.146V164.336C172.764 163.6 172.617 162.661 171.678 162.615C171.461 162.595 171.244 162.652 171.065 162.777C170.887 162.901 170.758 163.085 170.703 163.296C170.557 163.901 170.557 164.532 170.703 165.137C170.859 165.809 171.282 166.729 170.896 167.383L168.99 170.347C168.898 170.463 168.838 170.602 168.817 170.75C168.795 170.897 168.814 171.047 168.87 171.185C168.926 171.323 169.018 171.443 169.137 171.534C169.255 171.624 169.395 171.681 169.543 171.7C169.556 171.83 169.599 171.956 169.668 172.067C169.737 172.179 169.83 172.273 169.941 172.343C170.052 172.413 170.177 172.457 170.308 172.472C170.438 172.486 170.57 172.471 170.693 172.427C170.865 172.539 171.072 172.581 171.273 172.547C171.383 172.691 171.539 172.793 171.715 172.835C171.891 172.877 172.077 172.856 172.24 172.777C172.292 172.91 172.378 173.028 172.489 173.119C172.6 173.21 172.733 173.271 172.874 173.296C173.015 173.321 173.161 173.309 173.296 173.262C173.432 173.214 173.553 173.133 173.648 173.025C175.001 171.396 176.796 170.19 178.029 168.423C178.09 168.303 178.124 168.17 178.128 168.035C178.132 167.9 178.106 167.766 178.052 167.643C177.999 167.519 177.919 167.408 177.818 167.319C177.717 167.229 177.597 167.163 177.468 167.125Z" fill="#DD9C5A"/>
<path d="M159.225 178.326C159.527 179.253 160.102 180.067 160.873 180.663C161.645 181.259 162.578 181.609 163.551 181.668C166.975 181.861 173.473 174.635 173.473 174.635C173.473 174.635 173.648 168.192 170.813 167.079C170.813 167.079 166.11 171.138 165.456 171.184C164.803 171.23 160.992 167.649 160.992 167.649" fill="#8B3907"/>
<path d="M178.996 167.714L179.852 166.048C179.91 165.894 179.925 165.727 179.896 165.565C179.868 165.403 179.796 165.251 179.689 165.126C179.582 165.001 179.443 164.907 179.287 164.854C179.131 164.801 178.964 164.791 178.803 164.824C178.961 164.379 179.06 163.915 179.097 163.444C179.092 163.262 179.028 163.087 178.916 162.944C178.803 162.801 178.647 162.699 178.472 162.651C178.296 162.604 178.11 162.614 177.941 162.68C177.772 162.747 177.629 162.866 177.532 163.02L176.106 165.781L176.759 163.987C177.127 162.965 175.507 162.532 175.139 163.536L174.026 166.573L173.851 165.781C173.694 165.054 173.418 164.161 172.488 164.272C172.272 164.291 172.07 164.385 171.917 164.538C171.764 164.691 171.669 164.894 171.651 165.11C171.62 165.743 171.743 166.375 172.01 166.95C172.277 167.586 172.857 168.423 172.58 169.132L171.209 172.381C171.139 172.511 171.105 172.658 171.11 172.806C171.115 172.953 171.159 173.097 171.237 173.222C171.316 173.348 171.426 173.45 171.557 173.519C171.688 173.588 171.834 173.621 171.982 173.614C172.018 173.739 172.082 173.855 172.169 173.951C172.256 174.048 172.363 174.124 172.484 174.174C172.604 174.223 172.734 174.245 172.864 174.238C172.994 174.23 173.12 174.193 173.234 174.13C173.423 174.204 173.634 174.204 173.823 174.13C173.955 174.254 174.127 174.329 174.308 174.341C174.49 174.353 174.67 174.301 174.817 174.194C174.892 174.318 174.997 174.421 175.123 174.492C175.248 174.563 175.39 174.601 175.535 174.601C175.68 174.601 175.822 174.563 175.947 174.492C176.073 174.421 176.179 174.318 176.253 174.194C177.311 172.353 178.867 170.862 179.788 168.929C179.833 168.797 179.847 168.656 179.83 168.518C179.813 168.379 179.764 168.246 179.688 168.129C179.612 168.012 179.51 167.914 179.39 167.842C179.27 167.77 179.135 167.726 178.996 167.714Z" fill="#FCBF81"/>
<path d="M167.196 202.442L165.935 209.327C165.935 209.327 167.914 211.361 174.578 211.122C181.242 210.883 174.578 198.954 174.578 198.954" fill="#2E2401"/>
<path d="M158.544 222.021C163.785 222.021 168.033 220.442 168.033 218.495C168.033 216.548 163.785 214.97 158.544 214.97C153.302 214.97 149.054 216.548 149.054 218.495C149.054 220.442 153.302 222.021 158.544 222.021Z" fill="#FF666D"/>
<path d="M156.942 202.728L157.31 216.912H160.136V202.728" fill="#FF666D"/>
<path d="M176.787 182.248C173.946 182.861 171.08 183.343 168.19 183.693C168.126 183.698 168.063 183.716 168.007 183.747C167.95 183.777 167.899 183.818 167.859 183.868C167.527 182.868 167.245 181.852 167.012 180.821C166.883 180.232 165.981 180.48 166.091 181.07C166.623 183.414 167.414 185.692 168.448 187.862C168.705 188.406 169.506 187.936 169.258 187.393C168.825 186.473 168.448 185.552 168.107 184.632H168.172C171.142 184.282 174.09 183.791 177.017 183.159C177.625 183.021 177.376 182.119 176.787 182.248Z" fill="#008074"/>
<path d="M169.11 188.829C168.351 190.091 167.376 191.21 166.229 192.134C165.76 192.511 166.423 193.174 166.892 192.797C168.098 191.82 169.123 190.639 169.92 189.308C169.984 189.201 170.002 189.072 169.971 188.952C169.94 188.831 169.862 188.727 169.755 188.664C169.647 188.6 169.519 188.582 169.398 188.613C169.277 188.644 169.174 188.722 169.11 188.829Z" fill="#008074"/>
<path d="M163.293 185.791C163.293 185.791 170.73 179.827 175.664 179.118C180.597 178.409 183.175 183.775 182.825 187.356C182.475 190.936 170.657 192.879 170.657 192.879" fill="#2E2401"/>
<path d="M167.26 187.78C168.181 186.859 180.846 180.996 185.292 183.684C189.738 186.371 189.461 188.369 188.9 191.645C188.338 194.922 184.04 212.576 184.04 212.576C180.805 213.825 177.253 213.993 173.915 213.055L175.158 199.939L158.341 190.734" fill="#6B460E"/>
<path d="M158.056 166.693C158.728 167.19 164.499 167.88 165.686 170.531C166.873 173.182 168.724 186.887 168.724 186.887C168.724 186.887 165.263 192.042 159.271 190.21C157.494 189.667 148.28 172.823 148.032 171.074C147.397 166.518 158.056 166.693 158.056 166.693Z" fill="#E55600"/>
<path d="M146.697 196.285C146.405 195.592 146.165 194.878 145.98 194.15C144.571 188.627 143.642 167.816 152.984 168.663C163.238 169.583 159.777 195.273 170.169 194.481C180.561 193.689 184.822 196.396 180.57 200.427C172.083 208.481 151.907 208.702 146.697 196.285Z" fill="#021E6A"/>
<path d="M161.737 159.532C161.802 159.955 162.547 165.91 160.817 167.254C159.087 168.598 155.092 165.413 155 163.858C154.908 162.302 153.564 159.007 155.248 158.188C156.933 157.368 161.268 156.586 161.737 159.532Z" fill="#FCBF81"/>
<path d="M163.293 182.193C163.77 183.044 164.492 183.732 165.366 184.167C166.239 184.602 167.223 184.764 168.19 184.632C171.586 184.163 176.566 175.814 176.566 175.814C176.566 175.814 175.489 169.454 172.497 168.911C172.497 168.911 168.668 173.798 168.033 173.973C167.398 174.148 165.695 170.54 165.695 170.54" fill="#E55600"/>
<path d="M161.36 169.399C160.605 168.883 159.519 168.478 159.786 167.429C159.989 166.509 160.891 165.901 160.918 164.962C160.927 164.511 160.846 164.062 160.68 163.641C160.515 163.221 160.267 162.838 159.952 162.514C159.556 162.109 159.031 161.879 159.335 161.235C159.563 160.817 159.904 160.472 160.32 160.24L162.253 160.36C162.614 159.349 162.59 158.24 162.186 157.246C161.782 156.251 161.026 155.44 160.062 154.966C158.813 154.311 157.395 154.049 155.994 154.213C154.593 154.377 153.275 154.961 152.211 155.887C151.706 156.446 151.27 157.064 150.913 157.728C150.499 158.56 149.927 159.304 149.229 159.918C148.844 160.146 148.516 160.457 148.267 160.828C148.019 161.199 147.857 161.621 147.793 162.063C147.736 162.923 147.965 163.778 148.446 164.493C148.934 165.413 148.152 166.058 147.526 166.72C146.829 167.338 146.376 168.183 146.246 169.104C146.154 171.102 148.087 172.022 149.753 172.326C151.419 172.63 152.874 172.851 154.438 173.117C156.426 173.458 158.369 174.176 160.403 173.624C160.936 173.474 161.424 173.192 161.82 172.805C162.033 172.59 162.198 172.333 162.306 172.05C162.413 171.768 162.46 171.466 162.444 171.164C162.427 170.862 162.348 170.567 162.21 170.298C162.073 170.029 161.88 169.792 161.645 169.601C161.554 169.529 161.459 169.461 161.36 169.399Z" fill="#700FBC"/>
<path d="M130.525 151.928L130.608 151.882C130.682 151.839 130.747 151.781 130.799 151.712C130.851 151.644 130.889 151.565 130.911 151.482C130.933 151.399 130.938 151.312 130.926 151.227C130.915 151.141 130.886 151.059 130.843 150.985C130.799 150.91 130.742 150.845 130.673 150.793C130.604 150.741 130.526 150.703 130.443 150.682C130.359 150.66 130.273 150.655 130.187 150.666C130.102 150.678 130.02 150.707 129.945 150.75L129.789 150.842C129.79 150.727 129.761 150.614 129.705 150.514C129.648 150.413 129.567 150.329 129.469 150.27C129.37 150.21 129.258 150.178 129.143 150.175C129.028 150.172 128.915 150.199 128.813 150.253C128.058 150.621 127.313 150.999 126.577 151.394L126.862 151.045C127.294 150.502 126.751 149.59 126.07 150.014C125.174 150.572 124.294 151.155 123.429 151.763C123.352 151.817 123.287 151.887 123.239 151.967C123.19 152.047 123.158 152.137 123.145 152.23C123.132 152.323 123.139 152.418 123.164 152.508C123.189 152.599 123.232 152.683 123.291 152.757L123.152 152.858C123.013 152.961 122.917 153.112 122.881 153.281C122.845 153.451 122.873 153.628 122.959 153.778C122.927 153.877 122.916 153.981 122.927 154.084C122.939 154.188 122.971 154.287 123.024 154.377C122.619 154.68 122.849 155.297 123.291 155.444L123.346 155.509L122.573 155.776C121.781 156.052 122.122 157.313 122.922 157.037L126.889 155.647C127.925 155.39 128.876 154.87 129.651 154.137C129.74 154.043 129.799 153.924 129.819 153.796C129.839 153.667 129.818 153.536 129.761 153.419C130.048 153.27 130.317 153.088 130.562 152.876C130.634 152.819 130.692 152.745 130.73 152.661C130.769 152.577 130.787 152.485 130.783 152.393C130.78 152.301 130.754 152.211 130.71 152.13C130.665 152.049 130.602 151.98 130.525 151.928Z" fill="#FCBF81"/>
<path d="M114.307 154.395C114.307 154.395 121.44 151.495 123.567 150.87C123.567 150.87 125.766 152.416 125.159 156.475C125.159 156.475 118.716 163.047 114.739 165.026" fill="#E55600"/>
<path d="M108.757 140.137C108.851 140.01 108.897 139.854 108.889 139.696C108.881 139.539 108.818 139.388 108.711 139.272C108.431 138.869 108.046 138.55 107.597 138.352C107.467 138.311 107.33 138.298 107.195 138.313C107.06 138.328 106.929 138.37 106.811 138.437C106.693 138.505 106.589 138.595 106.508 138.704C106.426 138.813 106.368 138.937 106.336 139.07C106.304 139.33 106.333 139.595 106.423 139.843C106.513 140.09 106.66 140.312 106.852 140.492C107.044 140.671 107.276 140.803 107.528 140.876C107.781 140.948 108.048 140.96 108.306 140.91C108.47 140.861 108.61 140.751 108.695 140.602C108.781 140.453 108.806 140.277 108.766 140.11L108.757 140.137Z" fill="#FF666D"/>
<path d="M109.787 199.662C115.028 199.662 119.277 198.084 119.277 196.137C119.277 194.19 115.028 192.612 109.787 192.612C104.546 192.612 100.298 194.19 100.298 196.137C100.298 198.084 104.546 199.662 109.787 199.662Z" fill="#FF666D"/>
<path d="M108.195 180.37L108.563 194.554H111.389V180.37" fill="#FF666D"/>
<path d="M96.8093 172.381C96.517 171.688 96.2771 170.974 96.0913 170.246C94.6831 164.723 93.7534 143.912 103.096 144.759C113.35 145.679 109.889 171.369 120.281 170.577C130.673 169.786 134.934 172.492 130.682 176.523C122.241 184.577 101.991 184.77 96.8093 172.381Z" fill="#021E6A"/>
<path d="M110.275 132.654C110.275 132.654 113.69 139.852 111.444 141.969C109.852 143.469 106.704 143.368 105.066 140.616C103.427 137.864 107.155 131.384 110.275 132.654Z" fill="#FCBF81"/>
<path d="M106.916 139.539C108.74 137.877 109.919 135.625 110.248 133.179C110.616 129.332 102.12 130.694 100.73 134.422C99.3402 138.149 101.393 143.562 107.109 142.798L106.916 139.539Z" fill="#F5EF4B"/>
<path d="M102.967 139.99C102.378 140.487 87.4851 155.702 95.2077 160.801C101.651 165.054 104.118 142.77 104.108 141.067" fill="#F5EF4B"/>
<path d="M299.768 168.018C299.717 167.808 299.623 167.61 299.492 167.438C299.249 167.144 298.96 166.892 298.636 166.693C294.3 163.756 288.299 162.946 283.706 165.772C282.657 166.426 281.101 167.917 281.718 169.316C282.077 170.126 283.163 170.604 283.918 170.936C286.439 171.934 289.072 172.62 291.76 172.979C292.736 173.145 293.711 173.301 294.696 173.403C295.373 173.466 296.054 173.359 296.678 173.091C297.302 172.822 297.849 172.401 298.267 171.865C298.967 171.046 300.081 169.288 299.768 168.018Z" fill="#010E2F"/>
<path d="M281.617 168.717C284.686 171.085 288.549 172.18 292.404 171.773C299.234 171.248 299.768 168.017 299.768 168.017C299.768 168.017 298.001 190.67 297.062 191.029C296.123 191.388 292.634 193.1 290.95 193.229C289.266 193.357 283.936 191.222 283.807 190.633C283.679 190.044 281.617 168.717 281.617 168.717Z" fill="#3563DF"/>
<path d="M293.361 162.413C293.25 162.656 293.184 162.918 293.168 163.186L293.361 162.413Z" fill="#FF666D"/>
<path d="M282.859 135.71C282.647 135.277 282.003 135.654 282.215 136.087C286.891 145.641 287.802 156.392 288.658 166.83C288.658 167.309 289.44 167.309 289.403 166.83C288.547 156.236 287.599 145.393 282.859 135.71Z" fill="#007F68"/>
<path d="M282.27 135.802C282.27 135.802 283.577 140.754 282.27 143.239C280.963 145.724 279.803 146.212 281.414 149.305C283.025 152.398 287.333 152.793 287.618 155.159C287.903 157.524 285.51 140.008 282.27 135.802Z" fill="#007F68"/>
<path d="M297.227 144.749C293.634 152.393 291.615 160.682 291.291 169.122C291.291 169.711 292.211 169.711 292.211 169.122C292.531 160.834 294.516 152.695 298.047 145.19C298.258 144.684 297.476 144.224 297.227 144.749Z" fill="#007F68"/>
<path d="M297.862 147.17C297.862 146.673 297.752 145.697 297.807 144.823L297.283 145.154C295.506 149.526 292.855 159.808 292.054 162.955C293.131 160.599 297.577 160.277 298.857 156.89C299.429 155.461 299.455 153.872 298.93 152.426C298.293 150.743 297.932 148.968 297.862 147.17Z" fill="#007F68"/>
</svg>
