<svg width="362" height="255" viewBox="0 0 362 255" fill="none" xmlns="http://www.w3.org/2000/svg">
<g filter="url(#filter0_d)">
<path d="M187.111 232.233L352.011 140.51C353.197 139.838 354.188 138.873 354.887 137.709C355.585 136.546 355.968 135.223 355.998 133.869C356.028 132.515 355.704 131.177 355.057 129.984C354.411 128.791 353.464 127.785 352.308 127.062L192.447 28.9139C191.231 28.1721 189.836 27.7696 188.409 27.7489C186.982 27.7282 185.576 28.09 184.339 28.7962L9.88649 129.122C8.70247 129.816 7.72139 130.804 7.0399 131.988C6.3584 133.172 6 134.512 6 135.875C6 137.238 6.3584 138.578 7.0399 139.762C7.72139 140.946 8.70247 141.934 9.88649 142.629L165.442 232.066C168.727 233.959 172.454 234.97 176.254 234.999C180.054 235.029 183.796 234.075 187.111 232.233Z" fill="#75D3B4"/>
<path style="mix-blend-mode:multiply" d="M191.179 101.245C190.972 101.078 189.774 100.264 189.605 100.156L222.916 79.8124L240.002 88.3363L204.682 109.416C195.198 103.118 200.554 107.768 191.179 101.245Z" fill="url(#paint0_linear)"/>
<path style="mix-blend-mode:multiply" d="M57.9173 168.838C57.7366 168.691 57.5482 168.553 57.353 168.426L89.6837 147.396L183.528 194.243L142.149 218.697C132.705 212.409 67.2819 175.351 57.9173 168.838Z" fill="url(#paint1_linear)"/>
<path d="M271.739 139.245V142.599L270.026 144.679" fill="#ADCEE1"/>
<path d="M203.751 98.4297L269.848 138.99C270.45 139.362 270.945 139.882 271.283 140.5C271.621 141.118 271.791 141.813 271.777 142.516C271.764 143.219 271.566 143.906 271.203 144.51C270.841 145.115 270.326 145.616 269.709 145.964L169.441 202.188C168.04 202.973 166.456 203.378 164.847 203.365C163.238 203.351 161.661 202.918 160.274 202.11L94.5242 163.855C89.7429 159.932 90.0993 152.644 94.5242 152.339L194.169 98.3905C195.62 97.5362 197.278 97.0886 198.966 97.0955C200.653 97.1024 202.308 97.5636 203.751 98.4297Z" fill="#88D3D8"/>
<path d="M203.751 95.6341L269.848 136.194C270.45 136.566 270.945 137.086 271.283 137.704C271.621 138.323 271.791 139.017 271.777 139.72C271.763 140.423 271.566 141.11 271.203 141.715C270.841 142.319 270.326 142.82 269.709 143.168L169.441 199.354C168.04 200.138 166.456 200.544 164.847 200.53C163.238 200.516 161.661 200.083 160.274 199.275L94.5242 161.02C93.7513 160.578 93.1096 159.941 92.6634 159.175C92.2173 158.409 91.9824 157.54 91.9824 156.655C91.9824 155.771 92.2173 154.902 92.6634 154.136C93.1096 153.369 93.7513 152.733 94.5242 152.29L194.169 95.5164C195.627 94.6739 197.289 94.2399 198.977 94.2606C200.664 94.2813 202.315 94.7561 203.751 95.6341Z" fill="white"/>
<path d="M201.059 90.0921C201.059 90.0921 173.638 2.38078 173.826 2.38078C174.015 2.38078 172.975 -1.54278 168.065 0.683842L62.7877 62.0778C62.7877 62.0778 57.6797 64.1279 58.6795 68.8362C59.6793 73.5444 85.4864 154.664 85.4864 154.664C86.0238 155.43 86.7927 156.007 87.6822 156.312C88.5717 156.617 89.5359 156.634 90.436 156.361C93.6433 155.38 198.574 94.9867 198.574 94.9867C199.54 94.6389 200.336 93.9383 200.798 93.0284C201.26 92.1185 201.353 91.068 201.059 90.0921Z" fill="#274598"/>
<path d="M172.054 8.75659L64.2725 71.0236L86.6248 145.395L195.803 84.9816L172.054 8.75659Z" fill="#193A42"/>
<path d="M207.81 104.933L231.964 119.843C232.394 120.106 232.748 120.476 232.989 120.916C233.231 121.356 233.353 121.851 233.343 122.352C233.333 122.853 233.192 123.343 232.932 123.773C232.673 124.203 232.305 124.559 231.865 124.806L145.188 173.743C143.892 174.484 142.423 174.874 140.927 174.874C139.43 174.874 137.961 174.484 136.665 173.743C131.092 170.525 121.499 164.728 115.629 161.158C115.106 160.84 114.674 160.394 114.377 159.862C114.08 159.33 113.928 158.73 113.935 158.122C113.942 157.514 114.108 156.918 114.417 156.393C114.726 155.867 115.168 155.431 115.699 155.125C133.23 145.022 190.417 112.064 202.94 104.864C203.681 104.436 204.526 104.216 205.385 104.228C206.243 104.24 207.081 104.484 207.81 104.933Z" fill="#001241"/>
<path d="M206.494 145.395L176.212 162.266C175.752 162.53 175.369 162.909 175.103 163.365C174.837 163.821 174.698 164.339 174.698 164.866C174.698 165.392 174.837 165.91 175.103 166.366C175.369 166.823 175.752 167.202 176.212 167.465L194.03 177.794C194.641 178.143 195.335 178.327 196.04 178.327C196.746 178.327 197.439 178.143 198.05 177.794L229.034 160.285C229.421 160.065 229.742 159.748 229.965 159.365C230.188 158.983 230.306 158.549 230.306 158.107C230.306 157.665 230.188 157.232 229.965 156.849C229.742 156.467 229.421 156.15 229.034 155.93L210.453 145.415C209.851 145.073 209.17 144.891 208.476 144.888C207.782 144.885 207.099 145.059 206.494 145.395Z" fill="#394C7E"/>
<path opacity="0.1" d="M207.81 104.933L231.964 119.843C232.394 120.106 232.748 120.476 232.989 120.916C233.231 121.356 233.353 121.851 233.343 122.352C233.333 122.853 233.192 123.343 232.932 123.773C232.673 124.203 232.305 124.559 231.865 124.806L145.188 173.743C143.892 174.484 142.423 174.874 140.927 174.874C139.43 174.874 137.961 174.484 136.665 173.743C131.092 170.525 121.499 164.728 115.629 161.158C115.106 160.84 114.674 160.394 114.377 159.862C114.08 159.33 113.928 158.73 113.935 158.122C113.942 157.514 114.108 156.918 114.417 156.393C114.726 155.867 115.168 155.431 115.699 155.125C133.23 145.022 190.417 112.064 202.94 104.864C203.681 104.436 204.526 104.216 205.385 104.228C206.243 104.24 207.081 104.484 207.81 104.933Z" fill="#56A1CC"/>
<path opacity="0.1" d="M206.494 145.395L176.212 162.266C175.752 162.53 175.369 162.909 175.103 163.365C174.837 163.821 174.698 164.339 174.698 164.866C174.698 165.392 174.837 165.91 175.103 166.366C175.369 166.823 175.752 167.202 176.212 167.465L194.03 177.794C194.641 178.143 195.335 178.327 196.04 178.327C196.746 178.327 197.439 178.143 198.05 177.794L229.034 160.285C229.421 160.065 229.742 159.748 229.965 159.365C230.188 158.983 230.306 158.549 230.306 158.107C230.306 157.665 230.188 157.232 229.965 156.849C229.742 156.467 229.421 156.15 229.034 155.93L210.453 145.415C209.851 145.073 209.17 144.891 208.476 144.888C207.782 144.885 207.099 145.059 206.494 145.395Z" fill="#56A1CC"/>
<path d="M124.962 100.528L156.176 82.8059C156.562 82.5636 156.839 82.1822 156.947 81.742C157.056 81.3018 156.988 80.837 156.757 80.4455C156.527 80.054 156.153 79.7663 155.712 79.643C155.272 79.5196 154.801 79.5703 154.398 79.7842L123.173 97.5062C122.786 97.7485 122.51 98.1298 122.401 98.5701C122.293 99.0103 122.361 99.4751 122.591 99.8666C122.822 100.258 123.196 100.546 123.636 100.669C124.076 100.792 124.548 100.742 124.951 100.528H124.962Z" fill="#F2F2F2"/>
<path d="M105.726 93.0781L119.995 84.9766C120.172 84.8658 120.298 84.6915 120.348 84.4903C120.397 84.289 120.366 84.0765 120.261 83.8976C120.156 83.7186 119.984 83.5871 119.783 83.5307C119.582 83.4743 119.367 83.4974 119.182 83.5952L104.908 91.6967C104.731 91.8075 104.605 91.9818 104.555 92.1831C104.506 92.3843 104.537 92.5968 104.642 92.7758C104.747 92.9547 104.919 93.0862 105.12 93.1426C105.321 93.199 105.536 93.1759 105.721 93.0781H105.726Z" fill="#F2F2F2"/>
<path d="M125.524 82.2882L139.793 74.1867C139.97 74.0759 140.097 73.9016 140.146 73.7003C140.196 73.4991 140.165 73.2866 140.059 73.1077C139.954 72.9287 139.783 72.7972 139.582 72.7408C139.38 72.6844 139.165 72.7075 138.981 72.8053L124.706 80.9068C124.53 81.0176 124.403 81.1919 124.354 81.3932C124.304 81.5944 124.335 81.8069 124.44 81.9858C124.546 82.1648 124.717 82.2963 124.918 82.3527C125.119 82.4091 125.335 82.386 125.519 82.2882H125.524Z" fill="#F2F2F2"/>
<path d="M145.323 71.4986L159.592 63.3971C159.768 63.2864 159.895 63.112 159.945 62.9108C159.994 62.7095 159.963 62.4971 159.858 62.3181C159.752 62.1391 159.581 62.0076 159.38 61.9512C159.179 61.8948 158.963 61.918 158.779 62.0158L144.505 70.1173C144.328 70.228 144.202 70.4024 144.152 70.6036C144.102 70.8049 144.133 71.0173 144.239 71.1963C144.344 71.3753 144.515 71.5068 144.717 71.5632C144.918 71.6195 145.133 71.5964 145.317 71.4986H145.323Z" fill="#F2F2F2"/>
<path d="M107.706 98.9636L121.975 90.8621C122.152 90.7513 122.278 90.577 122.328 90.3757C122.377 90.1745 122.346 89.962 122.241 89.7831C122.136 89.6041 121.964 89.4726 121.763 89.4162C121.562 89.3598 121.347 89.3829 121.162 89.4807L106.888 97.5822C106.711 97.693 106.585 97.8673 106.535 98.0686C106.486 98.2698 106.517 98.4823 106.622 98.6613C106.727 98.8402 106.899 98.9717 107.1 99.0281C107.301 99.0845 107.516 99.0614 107.701 98.9636H107.706Z" fill="#F2F2F2"/>
<path d="M127.504 88.1737L141.773 80.0722C141.95 79.9614 142.077 79.7871 142.126 79.5858C142.176 79.3846 142.145 79.1721 142.039 78.9932C141.934 78.8142 141.763 78.6827 141.562 78.6263C141.36 78.5699 141.145 78.593 140.961 78.6908L126.686 86.7923C126.51 86.9031 126.383 87.0774 126.334 87.2787C126.284 87.4799 126.315 87.6924 126.42 87.8713C126.526 88.0503 126.697 88.1818 126.898 88.2382C127.099 88.2946 127.315 88.2715 127.499 88.1737H127.504Z" fill="#F2F2F2"/>
<path d="M147.303 77.3838L161.572 69.2823C161.748 69.1715 161.875 68.9972 161.924 68.7959C161.974 68.5947 161.943 68.3822 161.838 68.2032C161.732 68.0243 161.561 67.8927 161.36 67.8364C161.159 67.78 160.943 67.8031 160.759 67.9009L146.485 76.0024C146.308 76.1131 146.182 76.2875 146.132 76.4887C146.082 76.69 146.113 76.9025 146.219 77.0814C146.324 77.2604 146.495 77.3919 146.696 77.4483C146.898 77.5047 147.113 77.4815 147.297 77.3838H147.303Z" fill="#F2F2F2"/>
<path d="M103.746 86.2118L118.015 78.1103C118.192 77.9995 118.319 77.8252 118.368 77.6239C118.418 77.4227 118.387 77.2102 118.281 77.0312C118.176 76.8523 118.005 76.7207 117.804 76.6644C117.602 76.608 117.387 76.6311 117.203 76.7289L102.928 84.8304C102.752 84.9411 102.625 85.1155 102.576 85.3167C102.526 85.518 102.557 85.7305 102.662 85.9094C102.768 86.0884 102.939 86.2199 103.14 86.2763C103.341 86.3327 103.557 86.3095 103.741 86.2118H103.746Z" fill="#F2F2F2"/>
<path d="M123.545 75.4222L137.814 67.3207C137.99 67.21 138.117 67.0356 138.166 66.8344C138.216 66.6331 138.185 66.4207 138.08 66.2417C137.974 66.0627 137.803 65.9312 137.602 65.8748C137.401 65.8184 137.185 65.8416 137.001 65.9394L122.727 74.0408C122.55 74.1516 122.423 74.3259 122.374 74.5272C122.324 74.7284 122.355 74.9409 122.461 75.1199C122.566 75.2988 122.737 75.4304 122.938 75.4867C123.14 75.5431 123.355 75.52 123.539 75.4222H123.545Z" fill="#F2F2F2"/>
<path d="M143.343 64.6323L157.612 56.5308C157.789 56.42 157.915 56.2457 157.965 56.0445C158.014 55.8432 157.983 55.6307 157.878 55.4518C157.773 55.2728 157.601 55.1413 157.4 55.0849C157.199 55.0285 156.984 55.0516 156.799 55.1494L142.525 63.2509C142.348 63.3617 142.222 63.536 142.172 63.7373C142.123 63.9385 142.154 64.151 142.259 64.33C142.364 64.5089 142.536 64.6404 142.737 64.6968C142.938 64.7532 143.153 64.7301 143.338 64.6323H143.343Z" fill="#F2F2F2"/>
<path d="M218.759 72.3969V85.8645H240.745V72.3969" fill="#FFF500"/>
<path d="M229.747 77.7525C235.821 77.7525 240.745 75.3547 240.745 72.3968C240.745 69.439 235.821 67.0411 229.747 67.0411C223.673 67.0411 218.749 69.439 218.749 72.3968C218.749 75.3547 223.673 77.7525 229.747 77.7525Z" fill="#B6BA00"/>
<path d="M229.747 91.74C235.821 91.74 240.745 89.3422 240.745 86.3844C240.745 83.4265 235.821 81.0287 229.747 81.0287C223.673 81.0287 218.749 83.4265 218.749 86.3844C218.749 89.3422 223.673 91.74 229.747 91.74Z" fill="#FFF500"/>
<path d="M242.061 41.0865C239.745 40.1056 236.528 37.0158 233.716 37.1139C232.789 39.7853 232.217 42.5649 232.014 45.3828C231.48 49.9637 231.374 54.5837 231.697 59.1839C231.763 60.2106 231.849 61.234 231.954 62.2541C231.982 62.5545 232.066 62.8472 232.202 63.1173C232.202 66.6681 232.202 70.2222 232.202 73.7796C232.216 73.8594 232.257 73.9319 232.32 73.9841C232.382 74.0364 232.462 74.0651 232.543 74.0651C232.625 74.0651 232.704 74.0364 232.767 73.9841C232.829 73.9319 232.871 73.8594 232.885 73.7796C232.885 70.3595 232.885 66.9428 232.885 63.5293C233.986 63.1688 235.042 62.685 236.033 62.0873C238.098 60.8025 239.659 58.8578 240.458 56.5747C242.23 51.6703 241.111 46.2165 242.794 41.3709C242.546 41.2728 242.309 41.1846 242.061 41.0865Z" fill="#297600"/>
<path d="M237.31 33.063C236.013 33.8344 234.945 34.9305 234.211 36.2411C234.013 36.5503 233.847 36.879 233.716 37.222L233.617 37.428C233.408 37.979 233.232 38.5425 233.093 39.1151C233.359 38.6817 233.773 38.3578 234.261 38.2029C234.837 37.9526 235.48 37.8941 236.092 38.0361C236.688 38.2633 237.254 38.5631 237.775 38.9287C238.557 39.3995 239.309 39.9096 240.091 40.4099C243.734 42.7051 248.585 42.9406 251.396 39.5957C251.396 39.4682 251.466 39.3309 251.495 39.1936C251.862 36.8787 245.368 28.4234 237.31 33.063Z" fill="#5FAD00"/>
<path d="M249.743 40.9887L250.198 40.6944C250.204 40.648 250.199 40.6008 250.184 40.5566C250.169 40.5123 250.143 40.4722 250.109 40.4394C247.912 38.2029 245.546 36.0058 242.536 34.8973C240.382 34.0873 238.048 33.8605 235.775 34.2401C235.528 34.5246 235.31 34.8189 235.092 35.1131C237.683 34.4407 240.429 34.6657 242.873 35.7507C245.452 37.0108 247.753 38.7644 249.644 40.9102C249.672 40.9425 249.705 40.9692 249.743 40.9887Z" fill="#297600"/>
<path d="M212.839 45.8635C211.242 46.6789 209.922 47.9407 209.042 49.4926C208.162 51.0444 207.762 52.818 207.889 54.5935C208.147 61.0183 218.838 54.7504 221.679 49.3261C224.52 43.9017 224.966 51.641 224.966 51.641" fill="#297600"/>
<path d="M222.451 43.6174C220.44 43.5814 218.437 43.856 216.511 44.4315C215.22 44.7378 213.977 45.2198 212.819 45.8636C213.491 46.3109 214.208 46.6888 214.957 46.9917C216.354 47.402 217.571 48.2657 218.412 49.4439C218.586 49.7549 218.726 50.0838 218.828 50.4248C219.481 52.5435 218.917 55.1036 219.818 57.2322C220.719 59.3607 222.491 61.2342 225.015 61.3911C227.985 61.5775 229.41 58.7035 229.964 56.2218C230.519 53.7402 231.37 50.3365 230.42 47.8058C229.331 44.8239 225.302 43.7547 222.451 43.6174Z" fill="#5FAD00"/>
<path d="M226.421 53.6519C225.153 49.591 222.461 45.8048 218.551 43.9607H218.373L218.184 44.0195L217.472 44.2059C222.035 45.8832 224.906 50.3463 226.084 54.9074C227.579 60.7437 227.074 67.0607 227.074 73.0245C227.074 73.1077 227.107 73.1876 227.167 73.2464C227.226 73.3053 227.307 73.3384 227.391 73.3384C227.475 73.3384 227.555 73.3053 227.615 73.2464C227.674 73.1876 227.707 73.1077 227.707 73.0245C227.747 66.6585 228.341 59.8217 226.421 53.6519Z" fill="#297600"/>
</g>
<defs>
<filter id="filter0_d" x="0" y="0" width="362" height="255" filterUnits="userSpaceOnUse" color-interpolation-filters="sRGB">
<feFlood flood-opacity="0" result="BackgroundImageFix"/>
<feColorMatrix in="SourceAlpha" type="matrix" values="0 0 0 0 0 0 0 0 0 0 0 0 0 0 0 0 0 0 127 0"/>
<feOffset dy="14"/>
<feGaussianBlur stdDeviation="3"/>
<feColorMatrix type="matrix" values="0 0 0 0 0.0413194 0 0 0 0 0.0963958 0 0 0 0 0.291667 0 0 0 0.38 0"/>
<feBlend mode="normal" in2="BackgroundImageFix" result="effect1_dropShadow"/>
<feBlend mode="normal" in="SourceGraphic" in2="effect1_dropShadow" result="shape"/>
</filter>
<linearGradient id="paint0_linear" x1="223.777" y1="81.1562" x2="206.485" y2="106.856" gradientUnits="userSpaceOnUse">
<stop stop-color="#78B46A"/>
<stop offset="1" stop-color="white"/>
</linearGradient>
<linearGradient id="paint1_linear" x1="18324.9" y1="15654.6" x2="17153.5" y2="18708.2" gradientUnits="userSpaceOnUse">
<stop stop-color="#78B46A"/>
<stop offset="1" stop-color="white"/>
</linearGradient>
</defs>
</svg>
