<svg width="250" height="175" viewBox="0 0 250 175" fill="none" xmlns="http://www.w3.org/2000/svg">
<path d="M247.614 96.6215C220.237 111.4 139.725 158.147 114.335 172.904C111.987 174.277 109.319 175 106.602 175C103.886 175 101.218 174.277 98.869 172.904L2.33632 116.204C-1.50369 113.948 -0.275739 109.686 3.59266 107.48L138.298 28.7209C138.992 28.3247 139.776 28.1165 140.573 28.1165C141.371 28.1165 142.155 28.3247 142.848 28.7209L247.707 88.6899C248.41 89.0872 248.994 89.6676 249.398 90.3703C249.801 91.0729 250.009 91.8719 250 92.6833C249.99 93.4946 249.764 94.2885 249.344 94.9814C248.924 95.6744 248.327 96.2409 247.614 96.6215Z" fill="#866511"/>
<path d="M131.505 33.9327C131.505 33.9327 129.212 49.696 139.079 49.746C148.554 49.7959 146.113 33.7399 146.113 33.7399C146.113 33.7399 139.185 27.743 131.505 33.9327Z" fill="url(#paint0_linear)"/>
<path d="M138.781 36.9595C142.807 36.9595 146.071 35.6043 146.071 33.9325C146.071 32.2608 142.807 30.9055 138.781 30.9055C134.755 30.9055 131.492 32.2608 131.492 33.9325C131.492 35.6043 134.755 36.9595 138.781 36.9595Z" fill="#112E7C"/>
<path opacity="0.7" d="M138.781 36.9595C142.807 36.9595 146.071 35.6043 146.071 33.9325C146.071 32.2608 142.807 30.9055 138.781 30.9055C134.755 30.9055 131.492 32.2608 131.492 33.9325C131.492 35.6043 134.755 36.9595 138.781 36.9595Z" fill="#1F1E00"/>
<path d="M127.304 10.9233C127.304 10.9233 122.222 9.69538 124.174 5.44043C124.174 5.44043 127.666 6.13293 127.304 10.9233Z" fill="#938F05"/>
<path d="M130.391 15.2068C130.391 15.2068 129.682 11.573 132.521 10.1023C132.514 10.1094 134.778 13.9146 130.391 15.2068Z" fill="#938F05"/>
<path d="M133.563 20.7822C133.563 20.7822 132.719 16.4345 136.097 14.6782C136.097 14.6782 138.809 19.233 133.563 20.7822Z" fill="#938F05"/>
<path d="M136.02 26.8577C136.02 26.8577 135.175 22.5099 138.554 20.7537C138.554 20.7537 141.265 25.3085 136.02 26.8577Z" fill="#938F05"/>
<path d="M130.087 15.3066C130.087 15.3066 128.291 12.0726 125.196 12.7865C125.196 12.7508 125.906 17.1628 130.087 15.3066Z" fill="#938F05"/>
<path d="M133.301 20.9177C133.301 20.9177 131.009 17.134 127.339 18.1334C127.332 18.1334 128.383 23.3379 133.301 20.9177Z" fill="#938F05"/>
<path d="M135.735 26.9074C135.735 26.9074 133.038 23.4021 129.503 24.7657C129.503 24.8014 131.114 29.8844 135.735 26.9074Z" fill="#938F05"/>
<path d="M137.638 37.0238H137.709C137.947 37.0188 138.185 37.038 138.419 37.0809C138.421 37.0572 138.421 37.0332 138.419 37.0095C137.308 27.285 133.511 18.0678 127.46 10.4018C127.14 10.002 126.587 10.566 126.899 10.9658C132.815 18.4735 136.529 27.4933 137.624 37.0095L137.638 37.0238Z" fill="#42352F"/>
<path d="M149.662 17.8619C149.662 17.8619 154.02 16.8125 152.345 13.1572C152.352 13.1572 149.35 13.7569 149.662 17.8619Z" fill="#938F05"/>
<path d="M146.993 21.5392C146.993 21.5392 147.596 18.4193 145.176 17.1628C145.197 17.17 143.245 20.4326 146.993 21.5392Z" fill="#938F05"/>
<path d="M144.296 26.3148C144.296 26.3148 145.006 22.581 142.124 21.0818C142.124 21.0889 139.789 24.9941 144.296 26.3148Z" fill="#938F05"/>
<path d="M142.188 31.5336C142.188 31.5336 142.898 27.7998 140.016 26.3005C140.016 26.3148 137.688 30.2057 142.188 31.5336Z" fill="#938F05"/>
<path d="M147.277 21.6244C147.277 21.6244 148.817 18.8473 151.472 19.4827C151.472 19.4613 150.869 23.2165 147.277 21.6244Z" fill="#938F05"/>
<path d="M144.523 26.4364C144.523 26.4364 146.489 23.1952 149.641 24.0448C149.641 24.0448 148.739 28.5139 144.523 26.4364Z" fill="#938F05"/>
<path d="M142.429 31.5764C142.429 31.5764 144.743 28.5708 147.774 29.7702C147.781 29.7702 146.397 34.1037 142.429 31.5764Z" fill="#938F05"/>
<path d="M149.527 17.3983C145.026 23.0903 141.964 29.7952 140.605 36.9382C140.832 36.9025 141.073 36.8668 141.315 36.8454C142.658 29.9151 145.635 23.4101 149.995 17.8766C150.272 17.5411 149.832 17.0342 149.527 17.3983Z" fill="#42352F"/>
<path d="M213.729 61.7751L213.764 99.0131L134.728 146.603V106.381L213.729 61.7751Z" fill="#76B52C"/>
<path d="M89.9683 83.043V120.624L134.728 146.603V106.381L89.9683 83.043Z" fill="#8CCE46"/>
<path d="M213.09 62.6033L134.281 111.221L89.9683 85.2273L128.141 70.4421" fill="#63A01C"/>
<path d="M84.9851 82.2934L128.9 108.116C142.33 105.927 155.249 101.292 167.024 94.4371C186.671 83.0144 213.736 61.7825 213.736 61.7825L173.369 37.9734L116.266 72.3128C116.266 72.3128 100.487 80.1516 84.9851 82.2934Z" fill="#8ED815"/>
<path d="M89.9683 83.0424L129.66 106.38C129.66 106.38 148.2 102.697 165.959 92.3805C183.718 82.0644 208.178 62.86 208.178 62.86L171.709 41.3425L120.092 72.3836C110.448 76.9843 100.352 80.5567 89.9683 83.0424V83.0424Z" stroke="#736357" stroke-miterlimit="10"/>
<path d="M153.936 86.9192C165.159 86.9192 174.257 81.3672 174.257 74.5184C174.257 67.6697 165.159 62.1177 153.936 62.1177C142.712 62.1177 133.614 67.6697 133.614 74.5184C133.614 81.3672 142.712 86.9192 153.936 86.9192Z" fill="#63A01C"/>
<path d="M29.3584 117.761C28.8999 114.528 29.2337 111.232 30.3308 108.159C32.155 103.161 40.1118 116.49 40.1118 116.49" fill="#F2AE16"/>
<path d="M53.9177 102.44C65.4875 103.996 73.3378 111.721 71.4498 119.667C69.5617 127.613 58.6734 132.81 47.0753 131.254C35.4772 129.697 27.6552 121.973 29.5433 114.027C31.4313 106.081 42.348 100.884 53.9177 102.44Z" fill="#CCB800"/>
<path d="M54.2727 97.9637C65.8424 99.52 73.6928 107.245 71.8048 115.191C69.9167 123.136 59.0284 128.334 47.4303 126.777C35.8322 125.221 28.0102 117.496 29.8982 109.551C31.7863 101.605 42.703 96.4073 54.2727 97.9637Z" fill="#FFE608"/>
<path d="M53.8541 99.7413C63.9971 101.105 70.8893 107.866 69.2212 114.834C67.5532 121.801 58.0064 126.349 47.8634 124.985C37.7203 123.622 30.8282 116.861 32.4962 109.893C34.1643 102.925 43.7111 98.3777 53.8541 99.7413Z" stroke="#988904" stroke-miterlimit="10"/>
<path d="M51.2415 106.195C50.3649 106.662 49.6416 107.375 49.1591 108.246C48.6766 109.118 48.4557 110.112 48.523 111.107C46.4646 111.398 44.4109 111.697 42.3619 112.007C42.3486 111.586 42.394 111.165 42.4968 110.757C42.8162 109.508 40.2112 109.33 39.8918 110.536C39.7488 111.147 39.7294 111.781 39.835 112.399L36.4351 112.935C34.7955 113.199 35.1859 115.155 36.8397 114.884L40.4455 114.32C41.1759 115.863 42.4215 117.098 43.9651 117.812C45.5087 118.526 47.2524 118.672 48.8921 118.225C51.8093 117.454 51.6745 115.241 51.3977 113.306C51.3977 113.113 51.3409 112.921 51.3054 112.728C53.2597 112.461 55.2187 112.204 57.1825 111.957C57.1344 112.84 56.994 113.716 56.7637 114.57C56.4301 115.819 59.0351 115.998 59.3687 114.791C59.6481 113.763 59.7866 112.701 59.7804 111.636L61.8104 111.386C63.4784 111.193 63.0739 109.244 61.4058 109.437L59.5249 109.665C59.2473 108.566 58.655 107.573 57.8213 106.809C56.9087 106.062 55.7959 105.605 54.6243 105.496C53.4527 105.387 52.2752 105.63 51.2415 106.195ZM48.9489 114.505C48.2391 116.347 46.4433 116.761 44.5907 115.619C43.9005 115.209 43.3224 114.632 42.9085 113.941C44.877 113.642 46.8479 113.354 48.8211 113.078C48.977 113.536 49.0208 114.026 48.9489 114.505ZM55.7984 108.037C56.4188 108.522 56.8467 109.213 57.0051 109.986C55.046 110.234 53.0893 110.491 51.135 110.757C51.1379 110.578 51.1521 110.399 51.1776 110.222C51.4332 108.694 53.2999 106.274 55.7984 108.037Z" fill="#F7931E"/>
<path d="M95.6463 0L79.3209 7.36049L85.8369 11.1443L68.8017 46.426L49.3816 39.7081L35.9238 73.4335C38.5217 74.997 41.155 76.4962 43.7316 78.1026L54.4212 50.8095L73.5077 56.8921L92.3741 14.771L99.7773 19.2544L95.6463 0Z" fill="#353C7E"/>
<path d="M110.276 95.0865L114.733 93.316L113.364 86.084L109.204 85.1987L110.276 95.0865Z" fill="#212836"/>
<path d="M175.541 29.0994C175.541 29.0994 177.905 29.9489 178.168 29.9489C178.43 29.9489 182.59 29.899 182.32 32.3548C182.05 34.8107 175.541 34.1682 175.541 34.1682L172.546 31.0055" fill="#EA831C"/>
<path d="M183.903 32.0689L180.574 30.9552C180.574 30.9552 176.528 30.0771 176.131 30.9552C175.733 31.8333 176.841 34.739 177.245 34.8318L180.312 35.5457L183.335 35.8955" fill="#F7931E"/>
<path d="M157.64 64.6523C157.64 64.6523 136.999 78.2882 134.976 78.4809C132.953 78.6737 112.596 86.6696 112.596 86.6696C112.596 86.6696 113.604 91.8241 113.064 94.1943C113.064 94.1943 150.258 84.7705 154.942 83.1642C159.627 81.5579 170.388 70.842 167.641 67.9578C164.894 65.0736 157.64 64.6523 157.64 64.6523Z" fill="#417BB1"/>
<path d="M169.578 43.1634C167.889 41.5571 165.071 34.3823 165.76 32.726C166.448 31.0697 170.998 33.8111 170.998 33.8111L175.548 29.1064C175.548 29.1064 169.209 23.8591 166.179 23.0167C163.148 22.1743 160.805 23.1595 159.84 26.8219C158.875 30.4843 162.047 43.3705 161.643 46.0976C161.238 48.8248 157.64 64.6595 157.64 64.6595C160.536 69.6569 172.382 72.2841 174.036 71.8629C175.69 71.4417 184.094 52.5443 184.094 52.5443C184.094 52.5443 199.802 42.2496 197.736 37.4521C195.671 32.6546 186.564 31.3124 184.704 31.084C182.845 30.8555 181.432 36.9095 181.432 36.9095C181.432 36.9095 187.387 38.5944 187.941 39.3654C188.495 40.1364 185.875 42.0997 180.914 43.1777C175.952 44.2557 174.852 43.656 174.852 43.656" fill="#1323AC"/>
<path d="M110.275 95.0865C110.275 95.0865 110.659 91.6668 110.928 90.0891C111.198 88.5113 112.185 79.7587 108.238 80.0585C104.292 80.3584 106.819 88.8754 106.67 89.8178C106.52 90.7602 106.144 93.4231 106.726 94.2512C107.308 95.0794 109.005 95.9789 110.275 95.0865Z" fill="#212836"/>
<path d="M105.315 88.2974C105.315 88.2974 103.895 89.2755 102.923 88.1118C101.95 86.9481 101.411 77.4387 100.694 75.5397C99.9768 73.6407 99.8988 70.271 102.206 70.0497C104.512 69.8284 104.839 70.9707 105.315 72.4984C105.79 74.0262 107.65 78.7523 109.382 79.352C110.822 79.8115 112.286 80.1904 113.768 80.4872L113.371 86.0843L105.315 88.2974Z" fill="#33394F"/>
<path d="M171.304 45.7047C171.304 45.7047 167.251 64.1524 167.081 64.6521C166.911 65.1519 163.234 67.3007 163.234 67.3007L162.417 63.981L170.176 45.3621L171.304 45.7047Z" fill="#091114"/>
<path d="M176.663 43.7992C176.663 43.7992 171.368 48.4039 171.603 48.0827C171.837 47.7614 170.474 45.9409 170.474 45.9409L168.096 46.6548L170.815 41.8716" fill="#091114"/>
<path d="M168.287 35.2244C168.287 35.2244 166.286 42.6777 169.593 44.3126C172.901 45.9475 175.222 43.513 176.23 41.2856C177.238 39.0582 176.805 33.8537 172.546 33.3183C168.82 32.8542 168.287 35.2244 168.287 35.2244Z" fill="#F7931E"/>
<path d="M167.379 33.8827C167.241 34.0584 167.148 34.2659 167.11 34.4866C167.071 34.7072 167.088 34.934 167.158 35.1465C167.229 35.3591 167.351 35.5506 167.513 35.7039C167.675 35.8571 167.873 35.9673 168.089 36.0245C168.362 36.0922 168.648 36.0979 168.924 36.0411C169.2 35.9843 169.46 35.8664 169.686 35.6961C170.225 35.3106 170.708 34.6752 171.453 34.9822C171.657 35.0673 171.83 35.2138 171.948 35.4017C172.067 35.5896 172.124 35.8096 172.113 36.0316C172.04 36.3208 172.004 36.6184 172.007 36.9169C172.065 37.1257 172.196 37.3065 172.376 37.4259C172.556 37.5452 172.772 37.5952 172.986 37.5666C173.696 37.5666 174.25 37.2381 174.86 37.7879C175.089 38.0026 175.238 38.2893 175.283 38.6007C175.328 38.9122 175.267 39.2298 175.108 39.5013C174.998 39.6198 174.903 39.7517 174.825 39.8939C174.711 40.0938 174.938 40.2437 175.116 40.1866C175.165 40.1771 175.209 40.1521 175.243 40.1152C175.339 40.0107 175.422 39.8957 175.492 39.7726C175.559 39.7082 175.64 39.6615 175.729 39.6365C175.819 39.6116 175.913 39.6093 176.003 39.6298C176.478 39.7583 176.28 40.258 176.003 40.515C175.807 40.7179 175.568 40.8725 175.303 40.9667C175.038 41.0608 174.755 41.0919 174.477 41.0576C174.429 41.0524 174.38 41.0623 174.338 41.0859C174.296 41.1096 174.262 41.1457 174.241 41.1895C174.22 41.2333 174.213 41.2826 174.221 41.3305C174.229 41.3785 174.251 41.4228 174.285 41.4574C174.26 41.4821 174.241 41.5124 174.23 41.546C174.219 41.5795 174.216 41.6152 174.221 41.6502C174.292 42.1383 174.213 42.6366 173.994 43.078C173.976 43.106 173.963 43.1373 173.958 43.1702C173.952 43.2031 173.952 43.2369 173.96 43.2695C173.967 43.3021 173.981 43.3329 174 43.3601C174.019 43.3873 174.044 43.4103 174.072 43.4278C174.068 43.4599 174.072 43.4924 174.084 43.5224C174.096 43.5525 174.115 43.579 174.14 43.5996C174.165 43.6202 174.194 43.6343 174.226 43.6404C174.257 43.6466 174.29 43.6447 174.321 43.6348C175.184 43.4034 175.988 42.987 176.677 42.4141C178.274 40.9655 179.374 39.0465 179.822 36.9312C180.269 34.8894 179.708 31.8909 177.11 31.8481C177.005 31.8559 176.899 31.8438 176.798 31.8124C176.724 31.7767 176.657 31.7284 176.599 31.6696C175.952 31.0969 175.171 30.6983 174.33 30.5111C173.488 30.3238 172.613 30.354 171.787 30.5987C171.323 30.7072 170.89 30.9168 170.516 31.2127C170.203 30.9257 169.816 30.7327 169.4 30.6557C168.983 30.5788 168.554 30.6208 168.16 30.7772C167.109 31.2841 167.258 32.9189 167.606 33.8185C167.566 33.8072 167.523 33.8073 167.483 33.8186C167.443 33.8299 167.407 33.8521 167.379 33.8827ZM171.51 34.5038H171.581H171.623C171.665 34.5355 171.71 34.5619 171.758 34.5824C171.904 34.6409 172.026 34.7464 172.106 34.8822C171.941 34.7145 171.739 34.5875 171.517 34.511L171.51 34.5038ZM167.861 33.026C167.887 33.1088 167.918 33.1898 167.954 33.2688C167.897 33.2045 167.883 33.1188 167.861 33.026Z" fill="#935542"/>
<path d="M174.03 71.856C174.03 71.856 170.622 82.5648 163.83 84.7922C157.037 87.0196 151.557 82.7147 148.413 83.7284C145.268 84.7422 119.368 87.9334 112.618 86.6698C112.618 86.6698 111.475 79.3021 113.086 77.7601C114.697 76.218 142.983 70.4139 145.737 70.0212C148.491 69.6286 160.82 67.7224 160.82 67.7224" fill="#7AB3D3"/>
<path d="M29.2371 107.344C28.7786 104.112 29.1124 100.815 30.2095 97.7422C32.0337 92.7448 39.9905 106.074 39.9905 106.074" fill="#F2AE16"/>
<path d="M53.7971 91.9953C65.3669 93.5517 73.2172 101.276 71.3292 109.222C69.4411 117.168 58.5528 122.365 46.9547 120.809C35.3566 119.253 27.5346 111.528 29.4227 103.582C31.3107 95.6363 42.2274 90.4675 53.7971 91.9953Z" fill="#CCB800"/>
<path d="M54.1516 87.5477C65.7213 89.104 73.5717 96.8286 71.6837 104.774C69.7956 112.72 58.9073 117.918 47.3092 116.361C35.7111 114.805 27.8891 107.08 29.7771 99.1345C31.6652 91.1886 42.5819 85.9913 54.1516 87.5477Z" fill="#FFE608"/>
<path d="M53.7264 89.3327C63.8694 90.6962 70.7616 97.457 69.0935 104.425C67.4255 111.393 57.8787 115.94 47.7357 114.577C37.5927 113.213 30.7005 106.452 32.3685 99.4846C34.0366 92.5167 43.5905 87.9619 53.7264 89.3327Z" stroke="#988904" stroke-miterlimit="10"/>
<path d="M51.1133 95.7792C50.2367 96.2461 49.5134 96.9585 49.0309 97.8302C48.5485 98.7019 48.3275 99.6956 48.3948 100.691C46.3364 100.981 44.2827 101.281 42.2338 101.59C42.2205 101.17 42.2658 100.749 42.3686 100.341C42.688 99.0918 40.0831 98.9133 39.7637 100.12C39.6206 100.731 39.6013 101.365 39.7069 101.983L36.3069 102.519C34.6673 102.783 35.0577 104.739 36.7115 104.468L40.3173 103.904C41.0477 105.446 42.2933 106.682 43.8369 107.396C45.3805 108.109 47.1242 108.256 48.7639 107.809C51.6812 107.038 51.5463 104.825 51.2695 102.89C51.2695 102.697 51.2127 102.504 51.1772 102.312C53.1315 102.045 55.0906 101.788 57.0544 101.541C57.0062 102.424 56.8659 103.3 56.6356 104.153C56.302 105.403 58.9069 105.581 59.2405 104.375C59.5199 103.347 59.6584 102.285 59.6522 101.219L61.6822 100.969C63.3503 100.777 62.9457 98.8276 61.2777 99.0204L59.3967 99.2488C59.1192 98.1497 58.5268 97.1567 57.6932 96.3932C56.7805 95.6462 55.6677 95.189 54.4961 95.0797C53.3245 94.9704 52.147 95.2139 51.1133 95.7792ZM48.8207 104.089C48.1109 105.931 46.3151 106.345 44.4625 105.203C43.7723 104.792 43.1942 104.216 42.7803 103.525C44.7488 103.225 46.7197 102.937 48.6929 102.661C48.8488 103.12 48.8927 103.61 48.8207 104.089ZM55.6702 97.6211C56.2906 98.1053 56.7185 98.7965 56.8769 99.5701C54.9179 99.8176 52.9612 100.075 51.0069 100.341C51.0097 100.162 51.0239 99.9831 51.0495 99.8057C51.305 98.2779 53.2143 95.8292 55.6702 97.6211Z" fill="#F7931E"/>
<path d="M27.7476 98.4208C27.2891 95.1882 27.6229 91.8919 28.72 88.8187C30.5442 83.8212 38.501 97.1501 38.501 97.1501" fill="#F2AE16"/>
<path d="M52.3062 83.1002C63.8759 84.6565 71.7263 92.3811 69.8382 100.327C67.9501 108.273 57.0618 113.47 45.4637 111.914C33.8656 110.358 26.0436 102.633 27.9317 94.687C29.8198 86.7411 40.7365 81.5438 52.3062 83.1002Z" fill="#CCB800"/>
<path d="M52.6607 78.6307C64.2304 80.187 72.0808 87.9116 70.1927 95.8575C68.3046 103.803 57.4163 109.001 45.8182 107.444C34.2201 105.888 26.3981 98.1635 28.2862 90.2176C30.1742 82.2717 41.0909 77.0672 52.6607 78.6307Z" fill="#FFE608"/>
<path d="M52.235 80.4083C62.378 81.7719 69.2702 88.5327 67.6021 95.5005C65.9341 102.468 56.3802 106.987 46.2443 105.652C36.1084 104.317 29.2091 97.528 30.8771 90.5602C32.5452 83.5924 42.0991 79.0447 52.235 80.4083Z" stroke="#988904" stroke-miterlimit="10"/>
<path d="M49.6233 86.8626C48.748 87.3305 48.0262 88.0433 47.545 88.9149C47.0638 89.7866 46.8439 90.7797 46.9119 91.7743C44.8535 92.0647 42.7998 92.3645 40.7508 92.6739C40.7375 92.2531 40.7829 91.8326 40.8857 91.4245C41.2051 90.1752 38.6001 89.9967 38.2807 91.2032C38.1377 91.8142 38.1184 92.4479 38.224 93.0665L34.824 93.602C33.1844 93.8661 33.5748 95.8222 35.2286 95.551L38.8344 94.987C39.5648 96.5297 40.8104 97.7656 42.354 98.4792C43.8976 99.1929 45.6413 99.339 47.281 98.8921C50.1983 98.1211 50.0634 95.9079 49.7866 93.9732C49.7866 93.7804 49.7298 93.5877 49.6943 93.3949C51.6486 93.1284 53.6077 92.8714 55.5714 92.6239C55.5233 93.5072 55.383 94.383 55.1527 95.2368C54.8191 96.4862 57.424 96.6647 57.7576 95.4582C58.037 94.4301 58.1755 93.3684 58.1693 92.3026L60.1993 92.0528C61.8674 91.86 61.4628 89.911 59.7947 90.1038L57.9138 90.3322C57.6362 89.2331 57.0439 88.2401 56.2103 87.4766C55.2969 86.7281 54.1828 86.2701 53.0097 86.1607C51.8367 86.0514 50.6578 86.2957 49.6233 86.8626ZM47.3307 95.1726C46.6209 97.0145 44.8251 97.4286 42.9725 96.2863C42.2823 95.8758 41.7042 95.2993 41.2903 94.6086C43.2588 94.3087 45.2297 94.0208 47.2029 93.7447C47.3577 94.2013 47.4015 94.6884 47.3307 95.1654V95.1726ZM54.1802 88.7045C54.8006 89.1887 55.2285 89.8799 55.3869 90.6535C53.4278 90.901 51.4712 91.158 49.5169 91.4245C49.5197 91.2453 49.5339 91.0665 49.5594 90.8891C49.815 89.3542 51.7243 86.9054 54.1802 88.6974V88.7045Z" fill="#988904"/>
<path d="M67.602 80.8726C67.602 80.8726 67.9498 86.2983 63.7549 86.6339C63.7549 86.6339 67.3039 88.1188 67.9001 90.9602C67.9001 90.9602 68.3402 86.9908 71.946 86.5839C70.6689 86.2993 69.5328 85.5703 68.738 84.5253C67.9432 83.4804 67.5409 82.1867 67.602 80.8726Z" fill="white"/>
<path d="M213.714 68.2722C207.205 72.5057 200.661 76.675 194.11 80.8372L174.406 93.2379L154.616 105.503L144.679 111.586L134.742 117.604L144.516 111.271L154.339 105.018L174.043 92.6168L193.84 80.3731C200.448 76.2895 207.07 72.2559 213.714 68.2722Z" fill="#009245"/>
<path d="M213.714 72.3484C207.205 76.5819 200.661 80.7512 194.11 84.9133L174.406 97.3141L154.616 109.579L144.679 115.662L134.742 121.68L144.523 115.362L154.354 109.129L174.058 96.7287L193.84 84.4421C200.469 80.38 207.085 76.332 213.714 72.3484Z" fill="#009245"/>
<path d="M214.509 76.8818C208 81.1154 201.456 85.2846 194.904 89.4468L175.2 101.848L155.411 114.127L145.474 120.209L135.537 126.228L145.318 119.91L155.141 113.656L174.824 101.276L194.62 89.0113C201.229 84.9206 207.851 80.8726 214.509 76.8818Z" fill="#009245"/>
<path d="M214.509 82.3716C208 86.6051 201.456 90.7744 194.904 94.9365L175.2 107.344L155.411 119.61L145.474 125.692L135.537 131.71L145.318 125.392L155.12 119.124L174.824 106.723L194.62 94.4582C201.229 90.4103 207.851 86.3624 214.509 82.3716Z" fill="#009245"/>
<path d="M213.714 88.5044C207.205 92.7379 200.661 96.9072 194.11 101.069L174.406 113.47L154.616 125.735L144.679 131.818L134.742 137.836L144.523 131.518L154.347 125.264L174.051 112.863L193.84 100.605C200.455 96.5431 207.078 92.4881 213.714 88.5044Z" fill="#009245"/>
<path d="M213.758 92.5811C207.249 96.8146 200.704 100.984 194.153 105.146L174.449 117.547L154.653 129.833L144.716 135.916L134.778 141.934L144.559 135.616L154.383 129.362L174.087 116.961L193.841 104.682C200.477 100.62 207.1 96.5647 213.758 92.5811Z" fill="#009245"/>
<path d="M90.6641 92.645C94.284 94.5155 97.8685 96.4573 101.446 98.4063C105.023 100.355 108.544 102.354 112.135 104.332C115.727 106.309 119.233 108.351 122.747 110.4L128.021 113.484C129.767 114.534 131.527 115.562 133.259 116.633C131.442 115.705 129.653 114.734 127.85 113.777L122.477 110.864C118.928 108.915 115.379 106.916 111.788 104.939C108.196 102.961 104.69 100.919 101.176 98.8704C97.6627 96.8214 94.1421 94.7725 90.6641 92.645Z" fill="#009245"/>
<path d="M90.6641 97.5066C94.284 99.3771 97.8685 101.319 101.446 103.268C105.023 105.217 108.544 107.216 112.135 109.193C115.727 111.171 119.233 113.213 122.747 115.262L128.021 118.346C129.767 119.395 131.527 120.423 133.259 121.494C131.442 120.566 129.653 119.595 127.85 118.639L122.477 115.726C118.928 113.777 115.379 111.778 111.788 109.8C108.196 107.823 104.69 105.781 101.176 103.732C97.6627 101.683 94.1421 99.6341 90.6641 97.5066Z" fill="#009245"/>
<path d="M91.2878 102.818C94.9078 104.689 98.4923 106.631 102.07 108.58C105.647 110.529 109.168 112.528 112.759 114.505C116.351 116.483 119.857 118.525 123.371 120.573L128.645 123.658C130.391 124.707 132.151 125.735 133.883 126.806C132.066 125.878 130.277 124.907 128.474 123.95L123.101 121.038C119.552 119.089 116.003 117.09 112.411 115.112C108.82 113.134 105.313 111.093 101.8 109.044C98.2865 106.995 94.7659 104.946 91.2878 102.818Z" fill="#009245"/>
<path d="M91.2878 107.701C94.9078 109.572 98.4923 111.514 102.07 113.463C105.647 115.412 109.168 117.411 112.759 119.388C116.351 121.366 119.857 123.408 123.371 125.457L128.645 128.541C130.391 129.59 132.151 130.618 133.883 131.689C132.066 130.761 130.277 129.79 128.474 128.833L123.101 125.921C119.552 123.972 116.003 121.973 112.411 119.995C108.82 118.018 105.313 115.976 101.8 113.927C98.2865 111.878 94.7659 109.807 91.2878 107.701Z" fill="#009245"/>
<path d="M91.0469 111.221C94.6668 113.092 98.2513 115.034 101.829 116.983C105.406 118.932 108.927 120.93 112.518 122.908C116.11 124.886 119.616 126.927 123.13 128.976L128.404 132.06C130.15 133.11 131.91 134.138 133.642 135.209C131.825 134.281 130.036 133.31 128.233 132.353L122.86 129.455C119.311 127.506 115.762 125.507 112.17 123.529C108.579 121.552 105.073 119.51 101.559 117.461C98.0455 115.412 94.532 113.349 91.0469 111.221Z" fill="#009245"/>
<path d="M91.0469 116.083C94.6668 117.953 98.2513 119.895 101.829 121.844C105.406 123.793 108.927 125.792 112.518 127.77C116.11 129.747 119.616 131.789 123.13 133.838L128.404 136.922C130.15 137.971 131.91 139 133.642 140.07C131.825 139.142 130.036 138.171 128.233 137.215L122.86 134.309C119.311 132.36 115.762 130.361 112.17 128.384C108.579 126.406 105.073 124.364 101.559 122.315C98.0455 120.266 94.532 118.21 91.0469 116.083Z" fill="#009245"/>
<defs>
<linearGradient id="paint0_linear" x1="138.835" y1="31.1309" x2="142.778" y2="51.6507" gradientUnits="userSpaceOnUse">
<stop stop-color="#FFF500"/>
<stop offset="1" stop-color="#707A00"/>
</linearGradient>
</defs>
</svg>
